<?xml version="1.0" encoding="UTF-8" standalone="no"?>
<svg
   xmlns:dc="http://purl.org/dc/elements/1.1/"
   xmlns:cc="http://creativecommons.org/ns#"
   xmlns:rdf="http://www.w3.org/1999/02/22-rdf-syntax-ns#"
   xmlns:svg="http://www.w3.org/2000/svg"
   xmlns="http://www.w3.org/2000/svg"
   xmlns:sodipodi="http://sodipodi.sourceforge.net/DTD/sodipodi-0.dtd"
   xmlns:inkscape="http://www.inkscape.org/namespaces/inkscape"
   width="102"
   height="102"
   viewBox="-9180 0 0 102"
   xml:space="preserve"
   id="svg4285"
   version="1.1"
   inkscape:version="0.91 r"
   sodipodi:docname="interval_icon_1.svg"><metadata
     id="metadata4309"><rdf:RDF><cc:Work
         rdf:about=""><dc:format>image/svg+xml</dc:format><dc:type
           rdf:resource="http://purl.org/dc/dcmitype/StillImage" /><dc:title /></cc:Work></rdf:RDF></metadata><defs
     id="defs4307" /><sodipodi:namedview
     pagecolor="#ffffff"
     bordercolor="#666666"
     borderopacity="1"
     objecttolerance="10"
     gridtolerance="10"
     guidetolerance="10"
     inkscape:pageopacity="0"
     inkscape:pageshadow="2"
     inkscape:window-width="1920"
     inkscape:window-height="1064"
     id="namedview4305"
     showgrid="false"
     inkscape:zoom="3.1542509"
     inkscape:cx="54.959535"
     inkscape:cy="32.401876"
     inkscape:window-x="0"
     inkscape:window-y="16"
     inkscape:window-maximized="0"
     inkscape:current-layer="g4301" /><desc
     id="desc4287">
    Rework of https://openclipart.org/detail/166606/orologio icon to keep time
  
    Jay Nick
    STEAMcoded.org
  </desc><script
     type="application/x-javascript"
     id="script4289"><![CDATA[
    var Clock = new function()
    {
      window.addEventListener("load", function(e) {init(); }, false);

      function init()
      {
      	// If script running, make the hour hand smaller so it is easier to distinguish
      	var node = document.getElementById("hours");
      	node.setAttribute("y",10);
        node.setAttribute("height",25);
      	setClock();
      }
      function setClock()
      {
        var dt;
        var sec;
        var min;
        var hr;
        var deg;
        var node;
        
        dt = new Date();
        min = dt.getMinutes();
        sec = dt.getSeconds();
        
        deg = (360/3600)*(60*min+sec);
        node = document.getElementById("minutes");
        node.setAttribute("transform","rotate("+deg+",3,32)");
        
        hr = dt.getHours();
        deg = 30*hr + 30/60*min;
        var node = document.getElementById("hours");
        node.setAttribute("transform","rotate("+deg+",3,32)");
        
        setTimeout(setClock,(10-dt.getSeconds()%10)*1000);
      }
    }();
    ]]></script><g
     transform="translate(1,1)"
     id="g4291"><path
       d="m -508.73983,27.622195 c 7.382,-9.081 18.004,-15.425 30.093,-17.245 l -5.514,-6.871 c -2.868,-2.96699998 -9.069,-1.697 -16.868,2.807 -7.799,4.503 -11.998,9.237 -10.864,13.204 l 3.153,8.105 z"
       id="path4293"
       inkscape:connector-curvature="0" /><path
       style="display:none"
       d="m 44.03,23.948 c -1.658,0 -3.002,1.344 -3.002,3.002 l 0,26.018 -26.018,0 c -1.658,0 -3.002,1.344 -3.002,3.002 0,1.658 1.344,3.002 3.002,3.002 l 29.02,0 c 1.658,0 3.002,-1.344 3.002,-3.002 l 0,-29.02 c 0,-1.658 -1.344,-3.002 -3.002,-3.002 z"
       id="path4295"
       inkscape:connector-curvature="0" /><path
       d="m -434.18883,27.622195 c -7.382,-9.081 -18.004,-15.425 -30.093,-17.245 l 5.514,-6.871 c 2.868,-2.96699998 9.069,-1.697 16.868,2.807 7.799,4.503 11.998,9.237 10.864,13.204 l -3.153,8.105 z"
       id="path4297"
       inkscape:connector-curvature="0" /><path
       d="m -471.46483,13.841195 c -24.278,0 -44.03,19.752 -44.03,44.03 0,24.28 19.752,44.030995 44.03,44.030995 24.278,0 44.03,-19.751995 44.03,-44.030995 10e-4,-24.278 -19.751,-44.03 -44.03,-44.03 z m 0,82.057 c -20.968,0 -38.026,-17.059 -38.026,-38.026 0,-20.967 17.058,-38.027 38.026,-38.027 20.968,0 38.026,17.059 38.026,38.026 0,20.967 -17.058,38.027 -38.026,38.027 z"
       id="path4299"
       inkscape:connector-curvature="0" /><g
       transform="translate(41.03,23.95)"
       id="g4301"
       clip-path="none"><rect
         id="hours"
         y="1.9021949"
         width="6"
         height="35"
         rx="3"
         x="-515.49481" /><path
         inkscape:connector-curvature="0"
         d="m -444.51505,3.0381196 c 7.382,-9.0810001 18.004,-15.4249996 30.093,-17.2449996 l -5.514,-6.871 c -2.868,-2.967 -9.069,-1.697 -16.868,2.807 -7.799,4.503 -11.998,9.2369999 -10.864,13.2039995 l 3.153,8.1050001 z"
         id="path4293-3" /><path
         inkscape:connector-curvature="0"
         d="m -369.96405,3.0381196 c -7.382,-9.0810001 -18.004,-15.4249996 -30.093,-17.2449996 l 5.514,-6.871 c 2.868,-2.967 9.069,-1.697 16.868,2.807 7.799,4.503 11.998,9.2369999 10.864,13.2039995 l -3.153,8.1050001 z"
         id="path4297-6" /><path
         inkscape:connector-curvature="0"
         d="m -407.24005,-10.74288 c -24.278,0 -44.03,19.7519995 -44.03,44.03 0,24.28 19.752,44.03101 44.03,44.03101 24.278,0 44.03,-19.75201 44.03,-44.03101 0.001,-24.2780005 -19.751,-44.03 -44.03,-44.03 z m 0,82.057 c -20.968,0 -38.026,-17.059 -38.026,-38.026 0,-20.967 17.058,-38.0270005 38.026,-38.0270005 20.968,0 38.026,17.0590005 38.026,38.0260005 0,20.967 -17.058,38.027 -38.026,38.027 z"
         id="path4299-7" /><rect
         x="-410.24005"
         id="hours-5"
         y="1.2681296"
         width="6"
         height="35"
         rx="3" /><rect
         x="-410.24002"
         id="hours-5-5"
         y="30.218012"
         width="6"
         height="35"
         rx="3" /><path
         inkscape:connector-curvature="0"
         d="m -337.99213,3.6721808 c 7.382,-9.081 18.004,-15.4249998 30.093,-17.2449998 l -5.514,-6.871 c -2.868,-2.967 -9.069,-1.697 -16.868,2.807 -7.799,4.503 -11.998,9.2369999 -10.864,13.2039998 l 3.153,8.105 z"
         id="path4293-3-2" /><path
         inkscape:connector-curvature="0"
         d="m -263.44113,3.6721808 c -7.382,-9.081 -18.004,-15.4249998 -30.093,-17.2449998 l 5.514,-6.871 c 2.868,-2.967 9.069,-1.697 16.868,2.807 7.799,4.503 11.998,9.2369999 10.864,13.2039998 l -3.153,8.105 z"
         id="path4297-6-6" /><path
         inkscape:connector-curvature="0"
         d="m -300.71713,-10.108819 c -24.278,0 -44.03,19.7519998 -44.03,44.03 0,24.28 19.752,44.031014 44.03,44.031014 24.278,0 44.03,-19.752014 44.03,-44.031014 0.001,-24.2780002 -19.751,-44.03 -44.03,-44.03 z m 0,82.057 c -20.968,0 -38.026,-17.059 -38.026,-38.026 0,-20.967 17.058,-38.0270002 38.026,-38.0270002 20.968,0 38.026,17.0590002 38.026,38.0260002 0,20.967 -17.058,38.027 -38.026,38.027 z"
         id="path4299-7-1" /><rect
         x="-303.71713"
         id="hours-5-8"
         y="1.9021908"
         width="6"
         height="35"
         rx="3" /><rect
         id="minutes-3-7"
         width="6"
         height="35"
         rx="3"
         transform="matrix(0,-1,1,0,0,0)"
         x="-36.902172"
         y="-332.71713"
         inkscape:transform-center-x="14.583495"
         inkscape:transform-center-y="0.15851625" /><rect
         x="-303.71707"
         id="hours-5-5-9"
         y="30.85207"
         width="6"
         height="35"
         rx="3" /><rect
         id="minutes-3-7-2"
         width="6"
         height="35"
         rx="3"
         transform="matrix(0,1,1,0,0,0)"
         x="30.90192"
         y="-303.64569"
         inkscape:transform-center-x="14.583495"
         inkscape:transform-center-y="-0.15851625" /><path
         inkscape:connector-curvature="0"
         d="m -229.56702,4.3062394 c 7.382,-9.0810001 18.004,-15.4249994 30.09301,-17.2449994 l -5.51401,-6.870996 c -2.868,-2.967 -9.069,-1.697 -16.868,2.807 -7.799,4.502996 -11.998,9.2369959 -10.864,13.2039953 l 3.153,8.1050001 z"
         id="path4293-3-2-0" /><path
         inkscape:connector-curvature="0"
         d="m -155.01601,4.3062394 c -7.382,-9.0810001 -18.004,-15.4249994 -30.093,-17.2449994 l 5.514,-6.870996 c 2.868,-2.967 9.069,-1.697 16.868,2.807 7.799,4.502996 11.998,9.2369959 10.864,13.2039953 l -3.153,8.1050001 z"
         id="path4297-6-6-2" /><path
         inkscape:connector-curvature="0"
         d="m -192.29201,-9.47476 c -24.27801,0 -44.03001,19.751999 -44.03001,44.03 0,24.28 19.752,44.03102 44.03001,44.03102 24.278,0 44.03,-19.75202 44.03,-44.03102 0.001,-24.278001 -19.751,-44.03 -44.03,-44.03 z m 0,82.057 c -20.96801,0 -38.02601,-17.059 -38.02601,-38.026 0,-20.967001 17.058,-38.0270007 38.02601,-38.0270007 20.968,0 38.026,17.0589997 38.026,38.0260007 0,20.967 -17.058,38.027 -38.026,38.027 z"
         id="path4299-7-1-3" /><rect
         x="-195.29204"
         id="hours-5-8-7"
         y="2.536253"
         width="6"
         height="35"
         rx="3" /><rect
         x="-195.29198"
         id="hours-5-5-9-9"
         y="31.48613"
         width="6"
         height="35"
         rx="3" /><rect
         id="minutes-3-7-2-2"
         width="6"
         height="35"
         rx="3"
         transform="matrix(0.54515113,0.83833779,0.83833779,-0.54515113,0,0)"
         x="-79.238953"
         y="-182.83626"
         inkscape:transform-center-x="-12.451734"
         inkscape:transform-center-y="-8.4752396" /><rect
         id="minutes-3-7-2-2-2"
         width="6"
         height="35"
         rx="3"
         transform="matrix(0.54515113,-0.83833779,0.83833779,0.54515113,0,0)"
         x="-137.09016"
         y="-145.11783"
         inkscape:transform-center-x="-12.451722"
         inkscape:transform-center-y="8.4752394" /><rect
         id="minutes-3-7-2-2-8"
         width="6"
         height="35"
         rx="3"
         transform="matrix(-0.54515113,0.83833779,-0.83833779,-0.54515113,0,0)"
         x="131.63327"
         y="141.75616"
         inkscape:transform-center-x="12.451736"
         inkscape:transform-center-y="-8.4752456" /><rect
         id="minutes-3-7-2-2-2-9"
         width="6"
         height="35"
         rx="3"
         transform="matrix(-0.54515113,-0.83833779,-0.83833779,0.54515113,0,0)"
         x="74.066711"
         y="179.28949"
         inkscape:transform-center-x="12.451711"
         inkscape:transform-center-y="8.4752373" /><path
         inkscape:connector-curvature="0"
         d="m -135.7254,2.4040471 c 7.382,-9.081 18.004,-15.4250001 30.093,-17.2450001 l -5.514,-6.870996 c -2.868,-2.967 -9.069,-1.697 -16.868,2.807 -7.799,4.502996 -11.998,9.236996 -10.864,13.2039961 l 3.153,8.105 z"
         id="path4293-3-2-0-3" /><path
         inkscape:connector-curvature="0"
         d="m -61.174397,2.4040471 c -7.382,-9.081 -18.004,-15.4250001 -30.093,-17.2450001 l 5.514,-6.870996 c 2.868,-2.967 9.069,-1.697 16.868,2.807 7.799,4.502996 11.998,9.236996 10.864,13.2039961 l -3.153,8.105 z"
         id="path4297-6-6-2-2" /><path
         inkscape:connector-curvature="0"
         d="m -98.450397,-11.376953 c -24.278003,0 -44.030003,19.7520001 -44.030003,44.03 0,24.279998 19.752,44.031018 44.030003,44.031018 24.278,0 44.03,-19.75202 44.03,-44.031018 0.001,-24.2779999 -19.751,-44.03 -44.03,-44.03 z m 0,82.056998 c -20.968003,0 -38.026003,-17.059 -38.026003,-38.025998 0,-20.967 17.058,-38.0269999 38.026003,-38.0269999 20.968,0 38.026,17.0589999 38.026,38.0259999 0,20.966998 -17.058,38.026998 -38.026,38.026998 z"
         id="path4299-7-1-3-0" /><rect
         x="-101.45045"
         id="hours-5-8-7-6"
         y="0.6340608"
         width="6"
         height="35"
         rx="3" /><rect
         x="-101.45039"
         id="hours-5-5-9-9-1"
         y="29.583939"
         width="6"
         height="35"
         rx="3" /><rect
         id="minutes-3-7-2-2-5"
         width="6"
         height="35"
         rx="3"
         transform="matrix(0.54515113,0.83833779,0.83833779,-0.54515113,0,0)"
         x="-29.675768"
         y="-103.1283"
         inkscape:transform-center-x="-12.451734"
         inkscape:transform-center-y="-8.4752396" /><rect
         id="minutes-3-7-2-2-2-5"
         width="6"
         height="35"
         rx="3"
         transform="matrix(0.47182111,-0.8816943,0.8816943,0.47182111,0,0)"
         x="-78.507759"
         y="-74.1436"
         inkscape:transform-center-x="-13.127866"
         inkscape:transform-center-y="7.3847047" /><rect
         id="minutes-3-7-2-2-8-4"
         width="6"
         height="35"
         rx="3"
         transform="matrix(-0.54515113,0.83833779,-0.83833779,-0.54515113,0,0)"
         x="78.88073"
         y="64.122185"
         inkscape:transform-center-x="12.451736"
         inkscape:transform-center-y="-8.4752456" /><rect
         id="minutes-3-7-2-2-2-9-7"
         width="6"
         height="35"
         rx="3"
         transform="matrix(-0.51196554,-0.85900599,-0.85900599,0.51196554,0,0)"
         x="20.494413"
         y="100.59105"
         inkscape:transform-center-x="12.773492"
         inkscape:transform-center-y="7.9820506" /><rect
         x="-72.0261"
         id="hours-5-8-7-6-6"
         y="45.062057"
         width="6"
         height="35"
         rx="3"
         transform="matrix(0.8660254,0.5,-0.5,0.8660254,0,0)"
         inkscape:transform-center-x="-6.805565"
         inkscape:transform-center-y="-11.457799" /><rect
         x="-72.324226"
         id="hours-5-5-9-9-1-5"
         y="75.737228"
         width="6"
         height="35"
         rx="3"
         transform="matrix(0.8660254,0.5,-0.5,0.8660254,0,0)"
         inkscape:transform-center-x="7.6693195"
         inkscape:transform-center-y="13.613558" /><rect
         id="minutes-3-7-2-2-5-6"
         width="6"
         height="35"
         rx="3"
         transform="matrix(0.05294583,0.99859739,0.99859739,-0.05294583,0,0)"
         x="23.610607"
         y="-102.68071"
         inkscape:transform-center-x="-14.212626"
         inkscape:transform-center-y="-0.041837494" /><rect
         id="minutes-3-7-2-2-2-5-9"
         width="6"
         height="35"
         rx="3"
         transform="matrix(0.8643096,-0.50296015,0.50296015,0.8643096,0,0)"
         x="-104.44386"
         y="-24.281588"
         inkscape:transform-center-x="-6.7751712"
         inkscape:transform-center-y="14.035751" /><rect
         id="minutes-3-7-2-2-8-4-3"
         width="6"
         height="35"
         rx="3"
         transform="matrix(-0.89128362,0.45344626,-0.45344626,-0.89128362,0,0)"
         x="100.80446"
         y="13.821851"
         inkscape:transform-center-x="8.857051"
         inkscape:transform-center-y="-13.557143" /><rect
         id="minutes-3-7-2-2-2-9-7-7"
         width="6"
         height="35"
         rx="3"
         transform="matrix(-0.05294583,-0.99859739,-0.99859739,0.05294583,0,0)"
         x="-28.782846"
         y="99.133957"
         inkscape:transform-center-x="17.240331"
         inkscape:transform-center-y="0.79688301" /><path
         inkscape:connector-curvature="0"
         d="m -28.275,1.7699776 c 7.382,-9.081 18.004,-15.4249996 30.093,-17.2449996 l -5.514,-6.870996 c -2.868,-2.967 -9.069,-1.697 -16.868,2.807 -7.799,4.502996 -11.998,9.236996 -10.864,13.2039956 l 3.153,8.105 z"
         id="path4293-3-2-0-3-4"
         style="fill:#ffffff;fill-opacity:0.87058824" /><path
         inkscape:connector-curvature="0"
         d="m 46.276,1.7699776 c -7.382,-9.081 -18.004,-15.4249996 -30.093,-17.2449996 l 5.514,-6.870996 c 2.868,-2.967 9.069,-1.697 16.868,2.807 7.799,4.502996 11.998,9.236996 10.864,13.2039956 l -3.153,8.105 z"
         id="path4297-6-6-2-2-5"
         style="fill:#ffffff;fill-opacity:0.87058824" /><path
         inkscape:connector-curvature="0"
         d="m 9,-12.011022 c -24.278,0 -44.03,19.7519996 -44.03,44.030002 0,24.28 19.752,44.03102 44.03,44.03102 24.278,0 44.03,-19.75202 44.03,-44.03102 C 53.031,7.7409776 33.279,-12.011022 9,-12.011022 Z M 9,70.04598 c -20.968,0 -38.026,-17.059 -38.026,-38.026 0,-20.967002 17.058,-38.0270024 38.026,-38.0270024 20.968,0 38.026,17.0590004 38.026,38.0260024 0,20.967 -17.058,38.027 -38.026,38.027 z"
         id="path4299-7-1-3-0-2"
         style="fill:#ffffff;fill-opacity:0.87058824" /><g
         style="font-style:normal;font-weight:normal;font-size:40px;line-height:125%;font-family:Sans;letter-spacing:0px;word-spacing:0px;fill:#ffffff;fill-opacity:0.87058824;stroke:none;stroke-width:1px;stroke-linecap:butt;stroke-linejoin:miter;stroke-opacity:1"
         id="text4811"><path
           d="m -14.28117,29.831646 q -2.65625,0 -4.21875,1.816406 -1.542969,1.816406 -1.542969,4.980469 0,3.144531 1.542969,4.980469 1.5625,1.816406 4.21875,1.816406 2.65625,0 4.199219,-1.816406 1.5624999,-1.835938 1.5624999,-4.980469 0,-3.164063 -1.5624999,-4.980469 -1.542969,-1.816406 -4.199219,-1.816406 z m 7.8320314,-12.363281 0,3.59375 q -1.484375,-0.703125 -3.0078125,-1.074219 -1.5039059,-0.371094 -2.9882809,-0.371094 -3.90625,0 -5.976563,2.636719 -2.050781,2.636719 -2.34375,7.96875 1.152344,-1.699219 2.890625,-2.597656 1.738281,-0.917969 3.828125,-0.917969 4.3945314,0 6.9335939,2.675781 2.5585937,2.65625 2.5585937,7.246094 0,4.492187 -2.65625,7.207031 -2.65625,2.714844 -7.0703126,2.714844 -5.058594,0 -7.734375,-3.867188 -2.675781,-3.886718 -2.675781,-11.25 0,-6.914062 3.28125,-11.015625 3.28125,-4.121093 8.808594,-4.121093 1.484375,0 2.9882809,0.292968 1.5234375,0.292969 3.1640625,0.878907 z"
           style="fill:#ffffff;fill-opacity:0.87058824"
           id="path13855" /><path
           d="m 10.699299,19.42149 q -3.0468751,0 -4.5898439,3.007812 -1.5234375,2.988281 -1.5234375,9.003906 0,5.996094 1.5234375,9.003907 1.5429688,2.988281 4.5898439,2.988281 3.066406,0 4.589844,-2.988281 1.542968,-3.007813 1.542968,-9.003907 0,-6.015625 -1.542968,-9.003906 -1.523438,-3.007812 -4.589844,-3.007812 z m 0,-3.125 q 4.902344,0 7.480469,3.886718 2.597656,3.867188 2.597656,11.25 0,7.363282 -2.597656,11.25 -2.578125,3.867188 -7.480469,3.867188 -4.9023439,0 -7.5000001,-3.867188 -2.57812504,-3.886718 -2.57812504,-11.25 0,-7.382812 2.57812504,-11.25 2.5976562,-3.886718 7.5000001,-3.886718 z"
           style="fill:#ffffff;fill-opacity:0.87058824"
           id="path13857" /><path
           d="m 41.168049,24.753521 0,3.398437 q -1.523438,-0.78125 -3.164063,-1.171875 -1.640625,-0.390625 -3.398437,-0.390625 -2.675781,0 -4.023438,0.820313 -1.328125,0.820312 -1.328125,2.460937 0,1.25 0.957032,1.972657 0.957031,0.703125 3.847656,1.347656 l 1.230469,0.273437 q 3.828125,0.820313 5.429687,2.324219 1.621094,1.484375 1.621094,4.160156 0,3.046875 -2.421875,4.824219 -2.402344,1.777344 -6.621094,1.777344 -1.757812,0 -3.671875,-0.351563 -1.894531,-0.332031 -4.003906,-1.015625 l 0,-3.710937 q 1.992187,1.035156 3.925781,1.5625 1.933594,0.507812 3.828125,0.507812 2.539063,0 3.90625,-0.859375 1.367188,-0.878906 1.367188,-2.460937 0,-1.464844 -0.996094,-2.246094 -0.976563,-0.78125 -4.316406,-1.503906 l -1.25,-0.292969 q -3.339844,-0.703125 -4.824219,-2.148437 -1.484375,-1.464844 -1.484375,-4.003907 0,-3.085937 2.1875,-4.765625 2.1875,-1.679687 6.210937,-1.679687 1.992188,0 3.75,0.292969 1.757813,0.292968 3.242188,0.878906 z"
           style="fill:#ffffff;fill-opacity:0.87058824"
           id="path13859" /></g></g></g></svg>