<?xml version="1.0" encoding="UTF-8" standalone="no"?>
<svg
   xmlns:dc="http://purl.org/dc/elements/1.1/"
   xmlns:cc="http://creativecommons.org/ns#"
   xmlns:rdf="http://www.w3.org/1999/02/22-rdf-syntax-ns#"
   xmlns:svg="http://www.w3.org/2000/svg"
   xmlns="http://www.w3.org/2000/svg"
   xmlns:sodipodi="http://sodipodi.sourceforge.net/DTD/sodipodi-0.dtd"
   xmlns:inkscape="http://www.inkscape.org/namespaces/inkscape"
   width="102"
   height="102"
   viewBox="-9180 0 0 102"
   xml:space="preserve"
   id="svg4285"
   version="1.1"
   inkscape:version="0.91 r"
   sodipodi:docname="interval_icon_5.svg"><metadata
     id="metadata4309"><rdf:RDF><cc:Work
         rdf:about=""><dc:format>image/svg+xml</dc:format><dc:type
           rdf:resource="http://purl.org/dc/dcmitype/StillImage" /><dc:title /></cc:Work></rdf:RDF></metadata><defs
     id="defs4307" /><sodipodi:namedview
     pagecolor="#ffffff"
     bordercolor="#666666"
     borderopacity="1"
     objecttolerance="10"
     gridtolerance="10"
     guidetolerance="10"
     inkscape:pageopacity="0"
     inkscape:pageshadow="2"
     inkscape:window-width="1920"
     inkscape:window-height="1064"
     id="namedview4305"
     showgrid="false"
     inkscape:zoom="2.2303921"
     inkscape:cx="-46.79652"
     inkscape:cy="71.063077"
     inkscape:window-x="0"
     inkscape:window-y="16"
     inkscape:window-maximized="0"
     inkscape:current-layer="g4301" /><desc
     id="desc4287">
    Rework of https://openclipart.org/detail/166606/orologio icon to keep time
  
    Jay Nick
    STEAMcoded.org
  </desc><script
     type="application/x-javascript"
     id="script4289"><![CDATA[
    var Clock = new function()
    {
      window.addEventListener("load", function(e) {init(); }, false);

      function init()
      {
      	// If script running, make the hour hand smaller so it is easier to distinguish
      	var node = document.getElementById("hours");
      	node.setAttribute("y",10);
        node.setAttribute("height",25);
      	setClock();
      }
      function setClock()
      {
        var dt;
        var sec;
        var min;
        var hr;
        var deg;
        var node;
        
        dt = new Date();
        min = dt.getMinutes();
        sec = dt.getSeconds();
        
        deg = (360/3600)*(60*min+sec);
        node = document.getElementById("minutes");
        node.setAttribute("transform","rotate("+deg+",3,32)");
        
        hr = dt.getHours();
        deg = 30*hr + 30/60*min;
        var node = document.getElementById("hours");
        node.setAttribute("transform","rotate("+deg+",3,32)");
        
        setTimeout(setClock,(10-dt.getSeconds()%10)*1000);
      }
    }();
    ]]></script><g
     transform="translate(1,1)"
     id="g4291"><path
       d="m -407.28943,26.98813 c 7.382,-9.081 18.004,-15.425 30.093,-17.245 l -5.514,-6.871 c -2.868,-2.96699996 -9.069,-1.697 -16.868,2.807 -7.799,4.503 -11.998,9.237 -10.864,13.204 l 3.153,8.105 z"
       id="path4293"
       inkscape:connector-curvature="0" /><path
       style="display:none"
       d="m 44.03,23.948 c -1.658,0 -3.002,1.344 -3.002,3.002 l 0,26.018 -26.018,0 c -1.658,0 -3.002,1.344 -3.002,3.002 0,1.658 1.344,3.002 3.002,3.002 l 29.02,0 c 1.658,0 3.002,-1.344 3.002,-3.002 l 0,-29.02 c 0,-1.658 -1.344,-3.002 -3.002,-3.002 z"
       id="path4295"
       inkscape:connector-curvature="0" /><path
       d="m -332.73843,26.98813 c -7.382,-9.081 -18.004,-15.425 -30.093,-17.245 l 5.514,-6.871 c 2.868,-2.96699996 9.069,-1.697 16.868,2.807 7.799,4.503 11.998,9.237 10.864,13.204 l -3.153,8.105 z"
       id="path4297"
       inkscape:connector-curvature="0" /><path
       d="m -370.01443,13.20713 c -24.278,0 -44.03,19.752 -44.03,44.03 0,24.28 19.752,44.031 44.03,44.031 24.278,0 44.03,-19.752 44.03,-44.031 10e-4,-24.278 -19.751,-44.03 -44.03,-44.03 z m 0,82.057 c -20.968,0 -38.026,-17.059 -38.026,-38.026 0,-20.967 17.058,-38.027 38.026,-38.027 20.968,0 38.026,17.059 38.026,38.026 0,20.967 -17.058,38.027 -38.026,38.027 z"
       id="path4299"
       inkscape:connector-curvature="0" /><g
       transform="translate(41.03,23.95)"
       id="g4301"
       clip-path="none"><rect
         id="hours"
         y="1.2681298"
         width="6"
         height="35"
         rx="3"
         x="-414.04443" /><path
         inkscape:connector-curvature="0"
         d="m -343.06465,2.4040546 c 7.382,-9.0810001 18.004,-15.4249996 30.093,-17.2449996 l -5.514,-6.871 c -2.868,-2.967 -9.069,-1.697 -16.868,2.807 -7.799,4.503 -11.998,9.2369999 -10.864,13.2039995 l 3.153,8.1050001 z"
         id="path4293-3" /><path
         inkscape:connector-curvature="0"
         d="m -268.51365,2.4040546 c -7.382,-9.0810001 -18.004,-15.4249996 -30.093,-17.2449996 l 5.514,-6.871 c 2.868,-2.967 9.069,-1.697 16.868,2.807 7.799,4.503 11.998,9.2369999 10.864,13.2039995 l -3.153,8.1050001 z"
         id="path4297-6" /><path
         inkscape:connector-curvature="0"
         d="m -305.78965,-11.376945 c -24.278,0 -44.03,19.7519995 -44.03,44.03 0,24.28 19.752,44.03101 44.03,44.03101 24.278,0 44.03,-19.75201 44.03,-44.03101 0.001,-24.2780005 -19.751,-44.03 -44.03,-44.03 z m 0,82.057 c -20.968,0 -38.026,-17.059 -38.026,-38.026 0,-20.967 17.058,-38.0270005 38.026,-38.0270005 20.968,0 38.026,17.0590005 38.026,38.0260005 0,20.967 -17.058,38.027 -38.026,38.027 z"
         id="path4299-7" /><rect
         x="-308.78964"
         id="hours-5"
         y="0.63406461"
         width="6"
         height="35"
         rx="3" /><rect
         x="-308.78961"
         id="hours-5-5"
         y="29.583946"
         width="6"
         height="35"
         rx="3" /><path
         inkscape:connector-curvature="0"
         d="m -236.54173,3.0381158 c 7.382,-9.081 18.004,-15.4249998 30.093,-17.2449998 l -5.514,-6.871 c -2.868,-2.967 -9.069,-1.697 -16.868,2.807 -7.799,4.503 -11.998,9.2369999 -10.864,13.2039998 l 3.153,8.105 z"
         id="path4293-3-2" /><path
         inkscape:connector-curvature="0"
         d="m -161.99073,3.0381158 c -7.382,-9.081 -18.004,-15.4249998 -30.093,-17.2449998 l 5.514,-6.871 c 2.868,-2.967 9.069,-1.697 16.868,2.807 7.799,4.503 11.998,9.2369999 10.864,13.2039998 l -3.153,8.105 z"
         id="path4297-6-6" /><path
         inkscape:connector-curvature="0"
         d="m -199.26673,-10.742884 c -24.278,0 -44.03,19.7519998 -44.03,44.03 0,24.28 19.752,44.031014 44.03,44.031014 24.278,0 44.03,-19.752014 44.03,-44.031014 0.001,-24.2780002 -19.751,-44.03 -44.03,-44.03 z m 0,82.057 c -20.968,0 -38.026,-17.059 -38.026,-38.026 0,-20.967 17.058,-38.0270002 38.026,-38.0270002 20.968,0 38.026,17.0590002 38.026,38.0260002 0,20.967 -17.058,38.027 -38.026,38.027 z"
         id="path4299-7-1" /><rect
         x="-202.26672"
         id="hours-5-8"
         y="1.2681258"
         width="6"
         height="35"
         rx="3" /><rect
         id="minutes-3-7"
         width="6"
         height="35"
         rx="3"
         transform="matrix(0,-1,1,0,0,0)"
         x="-36.268108"
         y="-231.26672"
         inkscape:transform-center-x="14.583495"
         inkscape:transform-center-y="0.15851625" /><rect
         x="-202.26666"
         id="hours-5-5-9"
         y="30.218004"
         width="6"
         height="35"
         rx="3" /><rect
         id="minutes-3-7-2"
         width="6"
         height="35"
         rx="3"
         transform="matrix(0,1,1,0,0,0)"
         x="30.267855"
         y="-202.1953"
         inkscape:transform-center-x="14.583495"
         inkscape:transform-center-y="-0.15851625" /><path
         inkscape:connector-curvature="0"
         d="m -128.11662,3.6721744 c 7.382,-9.0810001 18.004,-15.4249994 30.093003,-17.2449994 l -5.514003,-6.870996 c -2.868,-2.967 -9.069,-1.697 -16.868,2.807 -7.799,4.502996 -11.998,9.2369959 -10.864,13.2039953 l 3.153,8.1050001 z"
         id="path4293-3-2-0" /><path
         inkscape:connector-curvature="0"
         d="m -53.565617,3.6721744 c -7.382,-9.0810001 -18.004,-15.4249994 -30.093,-17.2449994 l 5.514,-6.870996 c 2.868,-2.967 9.069,-1.697 16.868,2.807 7.799,4.502996 11.998,9.2369959 10.864,13.2039953 l -3.153,8.1050001 z"
         id="path4297-6-6-2" /><path
         inkscape:connector-curvature="0"
         d="m -90.841617,-10.108825 c -24.278003,0 -44.030003,19.7519993 -44.030003,44.03 0,24.28 19.752,44.03102 44.030003,44.03102 24.278,0 44.03,-19.75202 44.03,-44.03102 10e-4,-24.2780007 -19.751,-44.03 -44.03,-44.03 z m 0,82.057 c -20.968003,0 -38.026003,-17.059 -38.026003,-38.026 0,-20.967001 17.058,-38.0270007 38.026003,-38.0270007 20.968,0 38.026,17.0589997 38.026,38.0260007 0,20.967 -17.058,38.027 -38.026,38.027 z"
         id="path4299-7-1-3" /><rect
         x="-93.841637"
         id="hours-5-8-7"
         y="1.9021881"
         width="6"
         height="35"
         rx="3" /><rect
         x="-93.841576"
         id="hours-5-5-9-9"
         y="30.852064"
         width="6"
         height="35"
         rx="3" /><rect
         id="minutes-3-7-2-2"
         width="6"
         height="35"
         rx="3"
         transform="matrix(0.54515113,0.83833779,0.83833779,-0.54515113,0,0)"
         x="-24.464714"
         y="-97.440903"
         inkscape:transform-center-x="-12.451734"
         inkscape:transform-center-y="-8.4752396" /><rect
         id="minutes-3-7-2-2-2"
         width="6"
         height="35"
         rx="3"
         transform="matrix(0.54515113,-0.83833779,0.83833779,0.54515113,0,0)"
         x="-81.2528"
         y="-60.413795"
         inkscape:transform-center-x="-12.451722"
         inkscape:transform-center-y="8.4752394" /><rect
         id="minutes-3-7-2-2-8"
         width="6"
         height="35"
         rx="3"
         transform="matrix(-0.54515113,0.83833779,-0.83833779,-0.54515113,0,0)"
         x="75.795906"
         y="57.052132"
         inkscape:transform-center-x="12.451736"
         inkscape:transform-center-y="-8.4752456" /><rect
         id="minutes-3-7-2-2-2-9"
         width="6"
         height="35"
         rx="3"
         transform="matrix(-0.54515113,-0.83833779,-0.83833779,0.54515113,0,0)"
         x="19.292475"
         y="93.894135"
         inkscape:transform-center-x="12.451711"
         inkscape:transform-center-y="8.4752373" /><path
         d="M 33.792969 1 C 30.590615 1.0435645 26.341172 2.5951563 21.466797 5.4101562 C 13.667797 9.9131522 9.4675625 14.648234 10.601562 18.615234 L 13.755859 26.720703 C 21.137859 17.639703 31.758656 11.294609 43.847656 9.4746094 L 38.333984 2.6035156 C 37.258484 1.4908906 35.714381 0.97386133 33.792969 1 z M 68.267578 1 C 66.346166 0.97386133 64.802063 1.4908906 63.726562 2.6035156 L 58.212891 9.4746094 C 70.301891 11.294609 80.924641 17.639703 88.306641 26.720703 L 91.458984 18.615234 C 92.592984 14.648234 88.394703 9.9131522 80.595703 5.4101562 C 75.721328 2.5951563 71.469932 1.0435645 68.267578 1 z M 51.029297 12.939453 C 26.751297 12.939453 7 32.69075 7 56.96875 C 7 81.248748 26.751297 101 51.029297 101 C 75.307297 101 95.060547 81.247748 95.060547 56.96875 C 95.061547 32.69075 75.308297 12.939453 51.029297 12.939453 z M 51.029297 18.943359 C 71.997297 18.943359 89.056641 36.00175 89.056641 56.96875 C 89.056641 77.935748 71.997297 94.996094 51.029297 94.996094 C 30.061297 94.996094 13.003906 77.937701 13.003906 56.970703 C 13.003906 36.003703 30.061297 18.943359 51.029297 18.943359 z M 51.029297 24.949219 C 49.367297 24.949219 48.029297 26.287219 48.029297 27.949219 L 48.029297 47.212891 L 38.857422 29.185547 C 38.103794 27.704234 36.303579 27.117466 34.822266 27.871094 C 33.340952 28.624721 32.756138 30.424937 33.509766 31.90625 L 41.939453 48.476562 L 25.896484 38.042969 C 24.503167 37.136928 22.652135 37.530511 21.746094 38.923828 C 20.840053 40.317146 21.231683 42.168178 22.625 43.074219 L 37.957031 53.044922 L 19.736328 54.009766 C 18.076659 54.097762 16.812395 55.504394 16.900391 57.164062 C 16.988387 58.823731 18.395019 60.089949 20.054688 60.001953 L 39.59375 58.964844 L 22.019531 69.439453 C 20.591863 70.29034 20.127629 72.125066 20.978516 73.552734 C 21.829402 74.980402 23.664129 75.444637 25.091797 74.59375 L 43.154297 63.828125 L 32.976562 81.457031 C 32.145563 82.896365 32.636838 84.723688 34.076172 85.554688 C 35.515506 86.385688 37.342828 85.896365 38.173828 84.457031 L 48.029297 67.386719 L 48.029297 85.900391 C 48.029297 87.562391 49.367297 88.900391 51.029297 88.900391 C 52.691297 88.900391 54.029297 87.562391 54.029297 85.900391 L 54.029297 67.947266 L 63.089844 83.517578 C 63.925764 84.954061 65.756877 85.437482 67.193359 84.601562 C 68.629842 83.765643 69.113264 81.936483 68.277344 80.5 L 59.324219 65.113281 L 75.28125 73.652344 C 76.746626 74.43651 78.55763 73.887251 79.341797 72.421875 C 80.125964 70.956499 79.576704 69.145495 78.111328 68.361328 L 60.072266 58.707031 L 80.466797 57.626953 C 82.126466 57.538957 83.39073 56.132325 83.302734 54.472656 C 83.214738 52.812987 81.808106 51.54677 80.148438 51.634766 L 62.607422 52.566406 L 76.943359 43.244141 C 78.336677 42.338099 78.73026 40.487067 77.824219 39.09375 C 76.918178 37.700433 75.067146 37.306849 73.673828 38.212891 L 60.134766 47.017578 L 68.269531 32.925781 C 69.100531 31.486447 68.611209 29.659125 67.171875 28.828125 C 65.732541 27.997125 63.903266 28.486447 63.072266 29.925781 L 54.029297 45.587891 L 54.029297 27.949219 C 54.029297 26.287219 52.691297 24.949219 51.029297 24.949219 z "
         transform="translate(-42.03,-24.95)"
         id="path4293-3-2-0-3"
         style="fill:#ffffff;fill-opacity:0.87058824" /><path
         inkscape:connector-curvature="0"
         d="m 484.72138,-0.13539236 c 7.382,-9.08100004 18.004,-15.42499964 30.093,-17.24499964 l -5.514,-6.870996 c -2.868,-2.967 -9.069,-1.697 -16.868,2.807 -7.799,4.502996 -11.998,9.236996 -10.864,13.2039956 l 3.153,8.10500004 z"
         id="path4293-3-2-0-3-4" /><path
         inkscape:connector-curvature="0"
         d="m 559.27238,-0.13539236 c -7.382,-9.08100004 -18.004,-15.42499964 -30.093,-17.24499964 l 5.514,-6.870996 c 2.868,-2.967 9.069,-1.697 16.868,2.807 7.799,4.502996 11.998,9.236996 10.864,13.2039956 l -3.153,8.10500004 z"
         id="path4297-6-6-2-2-5" /><path
         inkscape:connector-curvature="0"
         d="m 521.99638,-13.916392 c -24.278,0 -44.03,19.7519996 -44.03,44.030002 0,24.28 19.752,44.03102 44.03,44.03102 24.278,0 44.03,-19.75202 44.03,-44.03102 10e-4,-24.2780024 -19.751,-44.030002 -44.03,-44.030002 z m 0,82.057002 c -20.968,0 -38.026,-17.059 -38.026,-38.026 0,-20.9670024 17.058,-38.0270024 38.026,-38.0270024 20.968,0 38.026,17.059 38.026,38.0260024 0,20.967 -17.058,38.027 -38.026,38.027 z"
         id="path4299-7-1-3-0-2" /><text
         xml:space="preserve"
         style="font-style:normal;font-weight:normal;font-size:40px;line-height:125%;font-family:Sans;letter-spacing:0px;word-spacing:0px;fill:#000000;fill-opacity:1;stroke:none;stroke-width:1px;stroke-linecap:butt;stroke-linejoin:miter;stroke-opacity:1"
         x="485.51208"
         y="44.078621"
         id="text4811"
         sodipodi:linespacing="125%"><tspan
           sodipodi:role="line"
           id="tspan4813"
           x="485.51208"
           y="44.078621">60s</tspan></text>
</g></g></svg>