<?xml version="1.0" encoding="UTF-8" standalone="no"?>
<!-- Created with Inkscape (http://www.inkscape.org/) -->

<svg
   xmlns:dc="http://purl.org/dc/elements/1.1/"
   xmlns:cc="http://creativecommons.org/ns#"
   xmlns:rdf="http://www.w3.org/1999/02/22-rdf-syntax-ns#"
   xmlns:svg="http://www.w3.org/2000/svg"
   xmlns="http://www.w3.org/2000/svg"
   xmlns:sodipodi="http://sodipodi.sourceforge.net/DTD/sodipodi-0.dtd"
   xmlns:inkscape="http://www.inkscape.org/namespaces/inkscape"
   width="312"
   height="312"
   viewBox="0 0 312 312.00001"
   id="svg2"
   version="1.1"
   inkscape:version="0.91 r"
   inkscape:export-filename="/home/jm/Downloads/slide-3.png"
   inkscape:export-xdpi="240"
   inkscape:export-ydpi="240"
   sodipodi:docname="intro_slide_2.svg">
  <defs
     id="defs4" />
  <sodipodi:namedview
     id="base"
     pagecolor="#ffffff"
     bordercolor="#666666"
     borderopacity="1.0"
     inkscape:pageopacity="0.0"
     inkscape:pageshadow="2"
     inkscape:zoom="1.4142136"
     inkscape:cx="218.10224"
     inkscape:cy="159.57545"
     inkscape:document-units="px"
     inkscape:current-layer="layer1"
     showgrid="false"
     units="px"
     inkscape:window-width="1920"
     inkscape:window-height="1064"
     inkscape:window-x="0"
     inkscape:window-y="16"
     inkscape:window-maximized="0" />
  <metadata
     id="metadata7">
    <rdf:RDF>
      <cc:Work
         rdf:about="">
        <dc:format>image/svg+xml</dc:format>
        <dc:type
           rdf:resource="http://purl.org/dc/dcmitype/StillImage" />
        <dc:title></dc:title>
      </cc:Work>
    </rdf:RDF>
  </metadata>
  <g
     inkscape:label="Layer 1"
     inkscape:groupmode="layer"
     id="layer1"
     transform="translate(0,-740.36216)">
    <rect
       style="opacity:1;fill:#f44336;fill-opacity:1;fill-rule:nonzero;stroke:none;stroke-width:4;stroke-linecap:round;stroke-linejoin:round;stroke-miterlimit:4;stroke-dasharray:none;stroke-opacity:1"
       id="rect4330"
       width="312"
       height="312"
       x="419.31433"
       y="739.65509" />
    <g
       id="g14879"
       transform="matrix(0.18248144,0,0,0.18248144,-60.552322,847.24012)"
       style="fill:#ffffff;fill-opacity:1">
      <g
         id="_x23_ffffffff"
         style="fill:#ffffff;fill-opacity:1" />
      <g
         id="_x23_000000ff"
         style="fill:#ffffff;fill-opacity:1">
        <path
           id="path14871"
           d="m 668.71,45.67 c 19.24,-7.46 38.2,-17.62 59.2599,-18.4 13.82,-0.9 26.9301,5.13 38.21,12.56 9.23,6.26 17.67,13.81 24.55,22.6 7.61,9.76 8.03,22.72 8.78,34.54 0.15,7.13 5.26,13.06 10.98,16.74 6.31,3.13 13.9,4.59 18.55,10.34 4.43,5.69 7.58,12.24 10.84,18.63 5.49,11.62 11.31,23.41 13.32,36.24 0.5,9.74 -2.12,19.46 -0.51,29.18 2.66,14.99 8.8,29.03 13.53,43.42 2.83,8.67 8.19,16.39 9.9,25.45 2.04,10.53 -1.28,21 -4.33,30.97 -1.54,4.48 -1.47,9.35 -0.61,13.96 0.11,2.17 0.11,4.35 0.07,6.54 -1.1,0.11 -2.19,0.2 -3.27,0.26 -4.21,-5.52 -7.29,-11.79 -11.5,-17.3 0.35,8.94 2.04,17.76 3.54,26.56 0.68,4.97 3.28,9.32 4.94,13.98 1.62,3.79 -2.06,7.21 -1.7,11.06 0.06,17.03 1.29,34.03 2.15,51.03 -0.1,2.54 1.73,4.54 2.26,6.95 -0.54,2.83 -2.47,5.19 -3,8.04 -0.21,3.75 5.84,4.88 4.98,8.8 -2.29,4.7 -7.53,7.72 -8.1,13.26 1.52,3.83 3.26,7.56 5.19,11.19 2.02,3.36 0.03,7.24 -0.81,10.64 -1.59,5.95 -4.47,11.82 -3.49,18.14 0.29,5.35 5.16,9.38 4.4,14.91 -0.53,16.08 -2.61,32.06 -3.72,48.11 -0.95,7.25 -0.48,14.6 -1.29,21.86 -0.28,6.8 -0.7,14.17 -5.07,19.78 -1.92,3.11 -5.33,5.58 -5.72,9.43 6.19,2.2 13.67,-1.9 19.16,2.64 4.74,3.11 3.99,9.2599 4.97,14.1299 2.79,22.07 5.34,44.1801 7.68,66.31 1.02,9.29 2.2401,18.57 3.02,27.89 1.08,9.99 2.33,19.97 3,30.01 0.46,3.7 1.03,7.5 0.37,11.22 -1.46,4.44 -6.77,4.65 -10.67,5.1 -7,0.2 -14.18,0.63 -21.01,-1.18 -3.5,-2.01 -3.65,-6.68 -3.88,-10.27 1.07,-6.34 -0.57,-12.64 -1.12,-18.95 -2.76,-20.97 -5.4,-41.96 -8.67,-62.86 -0.88,-6.25 -1.86,-12.51 -3.54,-18.6 -16.09,-0.93 -32.24,0.1 -48.34,0.24 -11.04,0.86 -22.15,0.57 -33.15,1.95 -6.33,1.54 -13.63,4.2 -16.28,10.74 -2,7.71 -2.85,15.7 -3.46,23.63 -1.7,16.89 -2.54,33.91 -1.44,50.87 0.07,4.99 1.46,10.01 0.64,14.99 -1.74,3.25 -6.01,2.41 -9.06,3.17 -9.08,0.67 -18.3,2.02 -27.36,0.41 -2.59,-0.36 -5.03,-1.89 -6.11,-4.32 -2.37,-5.09 -0.95,-10.79 -0.54,-16.12 0.31,-25.78 3.07,-51.43 4.44,-77.16 0.94,-12.29 1.61,-24.61 3.2,-36.83 1.07,-5.85 7.32,-8.2401 11.02,-12.19 -0.28,-1.83 -2.71,-1.94 -4,-2.83 -5.67,-2.23 -11.11,-5.26 -16.92,-7.01 -10.93,0.67 -21.71,2.96 -32.65,3.75 -13.02,1.09 -26.35,2.72 -39.23,-0.39 -14.9,-3.87 -28.51,-11.34 -41.87,-18.79 -2.97,-1.92 -7.78,-0.98 -9.44,-4.66 -0.22,-3.32 0.71,-6.58 1.01,-9.8701 3.21,-20.18 7.09,-40.25 10.95,-60.31 0.81,-4.83 3.1,-9.2 4.55,-13.83 1.54,-4.58 -0.25,-9.43 -3.39,-12.85 -3.16,-3.39 -7.02,-7.19 -11.99,-7.05 -2.45,7.67 -1.79,15.82 -2.84,23.7 -3.48,12.39 -8.14,24.43 -11.8701,36.75 -5.83,19.89 -16.9399,37.59 -27.37,55.31 -8.5099,14.57 -18.79,28.24 -25.07,43.99 -3.1,6.81 -0.45,14.37 2.46,20.75 3.31,7.45 8.32,13.97 12.03,21.19 1.74,4.34 -2.48,7.64 -4.67,10.84 0.06,0.35 0.1801,1.06 0.2401,1.41 1.94,1.92 4.7599,3.37 5.67,6.09 1.23,8.23 0.78,16.62 0.24,24.9 -0.12,7.27 -0.7,14.59 -2.45,21.67 -1.27,5.3 -6.5,8.3101 -11.18,10.28 -3.91,1.76 -8.26,1.76 -12.45,1.39 -4.36,-2.52 -4.01,-8.05 -4.79,-12.36 -0.5,-7.0601 -1.23,-14.09 -1.72,-21.15 -0.72,-4.69 -1.44,-9.5 -4,-13.6 -1.44,0.05 -2.99,-0.2 -4.32,0.49 -4.66,2.44 -8.18,6.47 -11.77,10.22 -5.83,6.65 -11.21,13.72 -16.04,21.13 -2.11,2.93 -1.69,6.71 -1.75,10.12 -0.98,1.92 -2.05,4.12 -4.36,4.63 -10.62,3.32 -21.86,3.32 -32.83,4.32 -10.69,0.21 -21.39,0.19 -32.08,-0.02 -9.44,-0.89 -19.09,-0.5 -28.29,-3.05 -2.66,-0.62 -4.76,-2.65 -5.66,-5.2 -2.42,-6.25 -2.05,-13.68 1.27,-19.52 1.75,-3.2 5.59,-3.9 8.86,-4.4301 8.05,-0.99 16.43,-0.73 24.09,-3.74 7.35,-3.14 11.98,-10.03 17.04,-15.87 17.12,-22.04 31.8,-46 43.98,-71.11 8.69,-18.72 14.27,-38.68 19.96,-58.47 6.76,-24.15 12.68,-48.53 18.67,-72.88 2.44,-9.31 4,-19 8.38,-27.67 3.23,-6.53 6.93,-12.94 8.6,-20.1 3.05,-13.44 2.38,-27.66 7.43,-40.66 6.47,-17.17 18.3,-31.54 26.71,-47.7 -10.92,-4.67 -22.27,-8.26 -33.49,-12.11 -4.59,-1.32 -9.04,-3.22 -13.77,-3.98 -2.63,0.88 -4.81,3.37 -7.77,2.93 -5.26,-0.88 -9.99,-4.38 -12.35,-9.18 -1.82,-4.12 -6.99,-3.81 -10.73,-3.46 -6.98,1.03 -13.96,-0.36 -20.95,-0.21 -10.11,-0.21 -20.67,-1.09 -29.73,-6.01 -7.14,-3.87 -13.6,-8.97 -19.29,-14.75 -1.62,-1.7 -3.3,-3.45 -4.24,-5.63 -1.52,-3.94 -0.58,-8.23 -1.17,-12.32 -1.32,-8.97 -2.84,-17.92 -3.77,-26.94 -0.58,-3.75 4.31,-7.12 1.47,-10.55 -7.48,-11.99 -16.14,-23.2 -23.88,-35.02 -4.27,-6.5 -7.38,-13.78 -12.46,-19.74 -1.46,-1.73 -2.49,-3.75 -3.4,-5.8 0.99,-2.62 2.78,-4.77 4.48,-6.95 8.08,-11.78 15.26,-24.15 22.72,-36.33 2.14,-3.11 5.01,-7.21 9.34,-6.56 1.36,-0.17 1.9,1.32 2.68,2.13 4.99,6.72 8.29,15.01 15.08,20.18 5.58,0.74 10.17,-3.27 15.17,-4.99 1.73,-0.66 2.42,1.69 3.24,2.73 2.09,4.27 3.07,9 5.28,13.22 10.39,20.03 20.82,40.03 31.16,60.09 6.92,13.79 14.29,27.39 20.57,41.5 1.5,3.14 -2.44,4.52 -4.51,5.76 -0.29,0.28 -0.88,0.84 -1.18,1.12 3.67,5.95 7.92,11.56 12.84,16.53 2.13,-2.05 3.55,-5.36 6.82,-5.73 3.51,-0.21 7,1.34 9.69,3.51 1.95,2.17 3,4.98 4.74,7.32 6.77,0.44 13.57,0.19 20.36,0.36 13.66,-0.18 27.34,-0.13 41.01,-0.22 9,0.12 18.2,-0.52 26.98,1.96 6.93,1.7 13.7,4.88 21.01,4.19 5.58,0.27 9.78,-3.81 13.87,-6.98 13.28,-10.97 25.61,-23.02 38.05,-34.92 13.6,-13.41 27.2,-26.83 40.2,-40.83 6.85,-7.18 13.65,-14.45 19.82,-22.23 2.96,-3.09 2.01,-7.88 0.4,-11.4 -2.2,-4.73 -5.92,-9.4 -11.23,-10.61 -9.24,0.09 -17.9,4.07 -27.05,4.75 -2.31,0.2 -4.96,-0.04 -6.34,-2.16 -3.1299,-4.67 -3.06,-10.52 -4.4399,-15.79 -2.14,-0.49 -4.28,-0.96 -6.41,-1.4 -0.33,-0.58 -0.99,-1.74 -1.32,-2.31 0.95,-2.05 1.98,-4.06 3.02,-6.06 -2.61,-1.59 -5.82,-2.31 -7.96,-4.55 -0.93,-2.79 0.25,-5.7 0.32,-8.54 -4.69,-2.23 -10.34,-3.16 -13.66,-7.53 0.04,-2.06 -0.08,-4.21 0.87,-6.11 3.31,-8 8.62,-15.37 9.55,-24.2 1.98,-13.34 -1.17,-26.83 1.12,-40.14 1.28,-6 3.11,-11.86 4.62,-17.81 1.17,-4.11 -1.06,-8.4 0.25,-12.46 2.69,-4.1897 7.74,-5.8297 12.03,-7.8697 m 124.66,82.56 c -0.39,4.78 0.05,9.84 -2.08,14.29 -2.22,4.84 -4.11,10.05 -7.92,13.9 -1.87,0.34 -3.71,0.78 -5.53,1.25 -0.13,3.79 -0.4301,7.61 -0.16,11.41 1.04,4.22 2.79,8.23 4.12,12.37 0.41,-0.02 1.24,-0.06 1.65,-0.08 0.52,-7.39 0.6,-15.19 4.22,-21.87 3.02,-5.66 7.34,-10.48 11.56,-15.27 2.38,-2.68 6.43,-5.19 5.23,-9.38 -1.25,-4.83 -6.71,-6.4 -11.09,-6.62 M 663.48,374.39 c -10.32,4.69 -20.35,9.97 -30.24,15.49 0.09,0.29 0.28,0.87 0.37,1.16 11.84,5.21 23.65,10.52 35.35,16.03 7.94,3.82 15.96,7.61 23.09,12.85 6.93,4.75 13.2,10.42 20.31,14.92 -0.2,-3.26 -0.76,-6.49 -0.77,-9.76 2.6,-1.89 4.91,-4.15 6.97,-6.61 -2.92,-0.31 -6.71,1.19 -8.89,-1.43 -1.18,-3.49 1.83,-6.58 2.01,-10.01 0.28,-4.97 -0.29,-10.75 -4.19,-14.29 -6.28,-3.61 -14.32,-3.33 -20.04,-8.09 -4.97,-3.88 -5.88,-10.97 -11.25,-14.45 -4.49,0.48 -8.61,2.46 -12.72,4.19 z"
           inkscape:connector-curvature="0"
           style="fill:#ffffff;fill-opacity:1;stroke:#000000;stroke-width:0.0938" />
      </g>
    </g>
    <g
       id="g14934"
       transform="matrix(0.11365572,0,0,0.11365572,98.471097,800.57411)"
       style="fill:#ffffff;fill-opacity:1">
      <path
         id="path14936"
         d="m 416.34,257.757 c 1.688,-1.128 3.908,-1.697 5.201,-3.137 15.87,-17.681 33.887,-6.6 40.105,-19.864 2.803,-5.978 5.205,-12.112 7.642,-18.202 2.548,-6.368 -4.772,-20.745 -11.464,-23.305 -28.59,-10.934 -33.55,-35.238 -38.749,-45.232 -16.556,-31.825 -4.683,-76.556 28.87,-95.001 17.89,-9.835 37.438,-15.911 58.36,-15.419 7.881,0.186 22.946,-5.65 34.913,0.739 9.317,4.974 20.78,-5.769 33.576,10.981 4.623,6.052 11.811,10.679 8.514,20.316 -0.806,2.356 1.013,5.776 3.731,7.434 3.406,2.077 4.834,5.804 7.509,8.45 5.922,5.859 8.049,11.994 3.858,20.139 -3.541,6.882 3.342,10.874 6.447,15.52 3.517,5.263 9.236,8.759 12.851,14.163 11.416,17.062 -13.06,12.312 -4.994,22.744 6.873,8.89 -2.948,15.737 3.648,24.053 1.804,2.275 1.602,4.905 1.445,7.531 -1.003,16.746 7.721,31.179 -10.028,37.569 -9.382,3.378 -17.627,8.985 -26.844,12.663 -5.063,2.02 -8.313,6.025 -9.395,11.755 -0.977,5.174 -17.65,41.487 6.34,47.831 21.129,5.588 65.306,24.095 77.819,45.602 8.243,14.169 12.363,-7.18 47.626,13.833 4.498,2.681 1.546,12.337 10.189,15.11 2.678,0.859 3.467,4.082 3.267,6.706 -1.094,14.316 3.987,28.501 1.659,42.655 -2.751,16.728 2.224,34.202 -3.412,50.147 -12.422,35.14 -5.351,78.397 -20.791,108.155 -19.586,37.749 -23.453,51.487 -43.394,61.484 -9.513,4.769 -15.909,2.857 -22.858,-5.502 -20.941,-25.189 -21.12,-32.738 -24.321,-23.996 -7.384,20.166 -15.989,39.976 -21.903,60.56 -5.205,18.117 -7.874,36.954 -14.629,54.739 -2.308,6.078 0.938,12.168 2.31,17.982 3.732,15.824 3.925,31.716 2.678,47.736 -1.071,13.767 -5.901,15.784 -12.106,15.644 -10.251,-0.231 -10.042,0.179 -12.575,9.694 -8.057,30.272 26.222,37.995 49.961,73.491 49.921,74.645 103.058,135.567 86.178,170.105 -36.897,75.492 -36.237,37.854 -127.829,105.1 -37.365,27.433 -80.665,40.309 -126.289,83.554 -8.967,8.5 -18.644,16.043 -26.274,26.019 -3.929,5.136 -5.533,11.326 -9.572,16.391 -2.189,2.745 -2.665,7.609 1.525,10.917 6.551,5.173 -6.868,32.203 -10.378,38.301 -4.474,7.775 -6.368,16.699 -6.778,25.85 -0.517,11.551 -2.11,23.041 -1.734,34.656 0.081,2.51 -0.534,5.644 -2.044,7.504 -10.997,13.547 2.223,26.873 10.477,43.353 14.607,29.166 -15.781,36.229 -40.912,22.672 -8.999,-4.855 4.315,-5.468 -17.647,-16.218 -1.949,-0.954 -3.917,-2.795 -3.832,-4.511 0.684,-13.736 -28.17,-19.119 -17.295,-35.292 1.348,-2.005 -0.078,-5.728 -3.679,-6.751 -9.196,-2.614 -13.436,-9.305 -11.013,-18.353 1.023,-3.819 2.841,-6.811 -2.466,-9.026 -3.477,-1.452 -3.978,-5.744 -2.28,-8.37 3.669,-5.673 -1.108,-13.521 -0.773,-14.902 4.045,-16.69 -10.92,-25.256 -16.441,-37.809 -6.513,-14.805 -21.812,12.482 -29.965,27.051 -16.767,29.963 -34.236,59.536 -43.739,93.014 -2.971,10.466 -8.453,20.208 -7.946,31.549 0.051,1.14 -0.737,2.968 -0.256,3.34 7.677,5.939 4.397,16.315 9.486,23.156 3.444,4.63 4.189,9.838 2.825,14.925 -5.276,19.673 3.868,37.156 -5.202,43.409 -6.932,4.779 -7.215,13.395 -0.122,17.567 9.348,5.5 7.934,10.862 17.179,10.232 9.55,-0.651 9.635,6.356 12.318,9.002 10.213,10.074 10.397,11.366 3.855,23.742 -1.724,3.262 -4.675,4.243 -7.866,4.747 -8.057,1.273 -15.936,4.078 -23.886,4.895 -13.436,1.381 -27.098,3.406 -40.608,0.502 -2.958,-0.636 -8.005,0.226 -7.275,-6.083 0.178,-1.54 -3.478,-2.594 -5.754,-2.93 -11.573,-1.706 -18.532,-11.067 -27.728,-16.704 -1.373,-0.842 -3.432,-2.904 -2.587,-4.176 4.377,-6.585 -2.25,-6.978 -4.828,-10.111 -5.088,-6.181 -12.27,-11.808 -9.934,-21.492 0.979,-4.058 -1.89,-5.123 -4.561,-6.212 -31.16,-12.711 -35.931,-41.309 -50.712,-49.669 -8.436,-4.772 -12.309,-36.718 9.208,-48.972 78.554,-44.736 67.955,-7.878 115.613,-149.974 10.45,-31.157 -0.026,-35.702 21.604,-100.725 3.18,-9.558 11.087,-17.9 16.487,-26.241 22.574,-34.872 34.265,-57.42 45.521,-60.565 4.394,-1.228 6.542,-4.359 7.294,-8.837 8.181,-48.712 35.358,-96.53 40.712,-120.215 3.29,-14.553 8.91,-28.351 14.801,-42.031 10.552,-24.505 15.457,-50.709 22.72,-76.203 1.336,-4.689 0.859,-9.046 -2.885,-12.934 -3.605,-3.743 -19.894,-41.709 -22.872,-59.818 -1.931,-11.742 -1.76,-23.826 0.549,-35.626 3.029,-15.478 3.788,-31.305 7.445,-46.687 0.992,-4.173 -3.18,-22.327 4.914,-32.86 4.211,-5.479 3.459,-13.408 3.999,-20.36 10.155,-130.834 23.126,-97.648 4.028,-277.564 -0.842,-7.936 -2.044,-8.504 -9.833,-7.335 -9.095,1.364 -16.464,6.888 -24.82,10.038 -64.865,24.453 -74.848,-0.056 -56.883,42.772 9.319,22.217 8.035,43.83 39.892,86.444 7.004,9.369 29.621,29.75 29.62,60.293 -0.002,34.804 14.99,38.4 -6.702,73.815 -3.167,5.17 -8.653,6.828 -14.493,3.6 -3.597,-1.988 -6.822,-1.457 -10.597,-0.236 -17.453,5.646 -32.212,-4.645 -39.772,-1.404 -2.738,1.174 -5.572,-1.389 -8.079,-2.656 -4.493,-2.273 -4.5,-10.301 2.573,-9.935 12.363,0.639 0.45,-5.939 5.645,-19.869 5.916,-15.864 9.081,-32.438 12.617,-48.92 1.049,-4.89 0.49,-9.22 -3.118,-12.969 -32.108,-33.368 -18.932,-15.636 -59.434,-69.732 -17.374,-23.205 -47.299,-87.744 -52.404,-95.825 -3.61,-5.713 -0.998,-11.999 -1.298,-17.966 -0.353,-7.016 5.912,-9.116 11.178,-11.852 22.989,-11.942 29.962,-34.55 85.679,-53.684 38.43,-13.197 54.246,-11.261 66.491,-26.158 11.295,-13.742 27.233,-21.996 45.138,-25.47 9.135,-1.773 17.446,-6.732 27.042,-6.867 24.368,-0.341 34.934,3.363 47.726,-5.184 z m -94.209,971.02 c 38.887,1.96 68.549,-35.109 85.742,-51.069 14.106,-13.094 27.129,-27.704 36.197,-44.696 40.242,-75.4 88.247,-83.644 96.71,-86.498 5.118,-1.726 7.083,-8.252 2.826,-11.426 -7.225,-5.386 -14.671,-11.375 -23.009,-14.104 -22.754,-7.446 -31.857,-19.447 -38.632,-3.595 -5.837,13.658 -8.705,9.861 -22.288,37.138 -4.29,8.614 -7.617,19.52 -20.692,19.542 -2.861,0.01 -4.036,3.024 -5.848,4.879 -9.854,10.094 -18.482,21.413 -30.336,29.517 -10.722,7.33 -19.76,27.424 -24.207,39.599 -13.371,36.605 -52.948,43.348 -64.043,70.799 -2.862,7.081 1.241,9.595 7.58,9.914 z M 680.193,445.786 c 0.414,-5.376 -0.703,-21.559 -6.64,-20.453 -3.265,0.608 -1.978,4.757 -1.825,7.536 1.213,21.971 -9.292,12.286 -6.147,23.96 4,14.844 0.284,21.792 6.812,21.832 8.664,0.052 6.216,-23.551 7.8,-32.875 z m -6.685,-79.534 c -1.108,-2.116 -7.466,-1.978 -6.401,0.814 0.793,2.079 2.805,1.346 4.422,1.304 1.317,-0.034 2.065,-0.704 1.979,-2.118 z"
         inkscape:connector-curvature="0"
         style="fill:#ffffff;fill-opacity:1" />
    </g>
    <path
       id="path14994"
       d="m 311.7212,952.57345 c -0.18363,-2.15928 -0.60261,-4.32801 -1.24635,-6.44507 -0.65118,-2.12755 -1.59042,-4.21816 -2.7914,-6.21172 -1.15562,-1.91758 -2.54761,-3.73909 -4.13802,-5.41503 -1.40572,-1.4796 -2.99613,-2.81887 -4.72584,-3.98076 -1.70544,-1.14403 -3.54492,-2.11488 -5.46564,-2.88323 -1.74026,-0.70604 -3.57657,-1.24528 -5.4572,-1.60312 -1.85423,-0.3535 -3.7602,-0.53286 -5.66404,-0.53286 -1.54608,0 -3.10271,0.11813 -4.62665,0.35244 -2.41357,0.37362 -4.79972,1.0722 -7.09193,2.07592 -2.25738,0.98774 -4.3934,2.25844 -6.3479,3.77491 -0.45593,-0.49598 -0.90021,-1.01628 -1.33081,-1.51863 -0.32925,-0.38628 -0.67012,-0.78523 -1.01417,-1.17033 0.0866,-0.0275 0.17306,-0.054 0.25961,-0.0815 0.88016,-0.27336 1.78987,-0.5572 2.58032,-1.07427 2.47691,-1.4944 4.0367,-3.99027 5.5448,-6.40284 0.14773,-0.21949 0.008,-0.45173 -0.11399,-0.65748 -0.0369,-0.0618 -0.0728,-0.12136 -0.10026,-0.17945 -0.82529,-1.27697 -1.98406,-2.28903 -3.10482,-3.26833 -0.43164,-0.37676 -0.87806,-0.76727 -1.29808,-1.1662 l -0.0158,-0.0148 0.005,0.0197 -0.56248,-0.50873 -0.0106,-0.01 c -0.0686,-0.0716 -0.13824,-0.14354 -0.20789,-0.21537 -0.85589,-0.88647 -1.74132,-1.80248 -2.3492,-2.9001 -0.77464,-1.29061 -1.0469,-2.79031 -0.74615,-4.11576 0.17522,-0.82534 0.78204,-1.44485 1.26011,-1.81838 0.13297,-0.0451 0.27015,-0.0521 0.37463,-0.0521 0.0601,0 0.12244,0 0.18258,0.01 0.0601,0 0.12137,0 0.18257,0 0.0359,0 0.0676,-9.3e-4 0.0982,0 l 0,0 c 0.28495,0.01 0.57517,0.0148 0.85589,0.0236 0.50763,0.0157 1.03424,0.0314 1.55136,0.0314 0.40737,0 0.7704,-0.01 1.11233,-0.0294 0.95932,-0.0628 1.94291,-0.3746 2.84311,-0.90227 0.45908,-0.27443 0.86856,-0.62264 1.18305,-1.00784 0.34826,-0.42642 0.5815,-0.89178 0.69231,-1.38255 0.15303,-0.8073 -0.0169,-1.71703 -0.48018,-2.56446 1.18832,-1.50175 1.98931,-3.19033 2.31754,-4.88518 0.20685,-1.04169 0.22901,-2.11174 0.0654,-3.18081 -0.16358,-1.06907 -0.50446,-2.0833 -1.01313,-3.01519 -0.0559,-0.10656 -0.12032,-0.20997 -0.18257,-0.31132 -0.12666,-0.20369 -0.57834,-0.90866 -0.57834,-0.90866 l -9.2e-4,0 -9.3e-4,0 c -0.41899,-0.51078 -0.84745,-1.02894 -1.2622,-1.52913 -0.65749,-0.79582 -1.33713,-1.61793 -1.99884,-2.4316 -2.92224,-3.66099 -5.21024,-7.58366 -6.7996,-11.6594 l -0.003,-0.01 -0.49707,-1.38363 0.007,0 -0.003,-0.01 c -1.42895,-4.03246 -2.21411,-8.46386 -2.33232,-13.17174 -9.3e-4,-0.0657 -0.003,-0.13197 -0.004,-0.19839 -0.009,-0.34615 -0.0158,-0.70291 0.0675,-1.04484 0.7092,0.47704 1.5102,0.73979 2.25527,0.73979 0.26489,0 0.52558,-0.0333 0.77252,-0.0981 0.79785,-0.18996 1.50704,-0.78836 1.89647,-1.60095 0.36092,-0.75246 0.38309,-1.57251 0.0601,-2.24793 -0.17097,-0.3546 -0.45381,-0.6459 -0.81896,-0.84429 -0.34087,-0.18573 -0.73979,-0.28385 -1.15138,-0.28385 -0.54138,0 -1.05111,0.16993 -1.43527,0.47704 -0.29656,0.24479 -0.39892,0.66169 -0.26595,1.08595 0.1372,0.4369 0.47808,0.74086 0.86961,0.77462 0.01,0 0.019,0 0.0285,0 0.29339,0 0.45169,-0.28915 0.56779,-0.5003 l -0.009,-0.01 c -0.077,0.0942 -0.1889,0.14776 -0.30499,0.14776 -0.18575,0 -0.33455,-0.12775 -0.36305,-0.31132 -0.0211,-0.16043 0.0253,-0.30926 0.13191,-0.43172 0.1372,-0.15619 0.36199,-0.25215 0.58784,-0.25215 0.26806,0 0.47174,0.12873 0.5604,0.35243 0.12664,0.45065 -0.0982,0.94142 -0.66594,1.45849 -0.19102,0.18996 -0.46013,0.29975 -0.73768,0.29975 -0.20578,0 -0.39892,-0.0599 -0.55617,-0.17416 -0.57094,-0.42209 -0.92978,-1.16404 -0.9361,-1.93553 0.0633,-0.79778 0.61315,-1.41522 1.21893,-2.02943 0.0317,-0.0314 0.0633,-0.0618 0.0961,-0.0942 0.39047,-0.37677 0.83266,-0.80416 0.78623,-1.39835 0.30604,0.31348 0.92555,0.82633 1.70015,0.82633 0.0528,0 0.10554,0 0.1583,-0.01 0.39682,-0.0824 0.73349,-0.3335 0.97411,-0.72606 0.20896,-0.33987 0.33244,-0.77678 0.34087,-1.19681 0.0116,-0.29651 -0.0876,-0.58673 -0.28601,-0.839 -0.18468,-0.23635 -0.4443,-0.41894 -0.72924,-0.51392 -0.12136,-0.0431 -0.25117,-0.0657 -0.38519,-0.0657 -0.43797,0 -0.81052,0.23106 -0.94771,0.58997 -0.0665,0.18779 -0.0327,0.39992 0.0961,0.58143 0.14352,0.20477 0.38202,0.33772 0.60683,0.33772 0.12875,0 0.2459,-0.0412 0.34826,-0.12137 l 0.0147,-0.0118 -0.019,0 c -0.0149,0 -0.0285,0 -0.0432,0 -0.19841,0 -0.31028,-0.1562 -0.39997,-0.30396 0.0802,-0.21321 0.28811,-0.35567 0.51818,-0.35567 0.096,0 0.19101,0.0255 0.27332,0.0727 0.28072,0.26816 0.24169,0.73352 0.057,1.05543 -0.14985,0.28916 -0.48334,0.46223 -0.89494,0.46223 -0.0834,0 -0.16567,-0.01 -0.24482,-0.0226 -0.57939,-0.13197 -0.61209,-0.88226 -0.60893,-1.11028 0.0106,-0.37775 0.0738,-0.76294 0.13613,-1.13441 0.11185,-0.67651 0.22689,-1.37617 0.0253,-2.06327 -0.18468,-0.77463 -0.78306,-1.32231 -1.43632,-1.85842 0.0929,0.0137 0.18679,0.0285 0.2786,0.0442 0.305,0.05 0.62055,0.10018 0.93293,0.10018 0.16042,0 0.30605,-0.0128 0.44641,-0.0403 0.35566,-0.053 0.69126,-0.22057 0.96988,-0.48549 0.2691,-0.25332 0.46753,-0.58467 0.55827,-0.93298 0.12559,-0.40629 0.11504,-0.87058 -0.0295,-1.27373 -0.15515,-0.43378 -0.45275,-0.76413 -0.83797,-0.92975 -0.25643,-0.11401 -0.56249,-0.17631 -0.86219,-0.17631 -0.69655,0 -1.2316,0.3124 -1.43212,0.83693 -0.0728,0.15198 -0.057,0.32927 0.0422,0.48646 0.10764,0.17101 0.28916,0.2808 0.46224,0.2808 0.13508,0 0.25222,-0.0667 0.33771,-0.19211 l 0.004,-0.01 -0.009,0 c -0.0454,-0.01 -0.0971,-0.01 -0.14669,-0.01 -0.12665,0 -0.25749,0 -0.32401,-0.12343 -0.0295,-0.0804 -0.0242,-0.15091 0.0169,-0.20899 0.0697,-0.0992 0.22162,-0.1351 0.34089,-0.1351 0.0697,0 0.13613,0.0118 0.18785,0.0333 0.22373,0.0559 0.39154,0.25863 0.42951,0.51609 0.0359,0.24696 -0.0612,0.47066 -0.25328,0.5836 -0.11926,0.0765 -0.24802,0.114 -0.38204,0.114 -0.42424,0 -0.81472,-0.37039 -0.99836,-0.71448 -0.33454,-0.58889 -0.0211,-1.30866 0.46119,-1.71388 0.69336,-0.59625 1.55348,-0.93083 2.38401,-1.25588 0.36831,-0.14355 0.74931,-0.29229 1.11023,-0.46115 1.72972,-0.91394 3.27474,-2.31337 4.4694,-4.04619 1.13978,-1.63902 1.98406,-3.54806 2.50856,-5.67462 0.71657,-2.8537 0.52133,-5.78226 -0.55089,-8.24654 -0.38416,-0.88431 -0.93188,-1.69485 -1.58302,-2.34496 -0.70604,-0.70497 -1.51021,-1.20732 -2.38827,-1.49333 -0.73978,-0.23852 -1.53024,-0.35979 -2.34813,-0.35979 -0.7968,0 -1.61047,0.11392 -2.41884,0.34086 -0.78202,0.2184 -1.53978,0.5361 -2.25319,0.94348 -0.40946,0.21635 -0.69441,0.57938 -0.96879,0.93082 -0.25435,0.32399 -0.51819,0.66062 -0.88017,0.87902 -0.18363,0.11824 -0.40418,0.18162 -0.63636,0.18162 -0.40209,0 -0.8084,-0.18897 -1.05957,-0.49294 -0.11081,-0.13295 -0.21634,-0.27541 -0.31871,-0.41257 -0.26384,-0.35459 -0.53612,-0.72086 -0.92238,-0.96458 -0.76407,-0.54454 -1.63578,-0.9636 -2.58876,-1.24322 -0.90865,-0.266 -1.86903,-0.40101 -2.85365,-0.40101 -0.43797,0 -0.87913,0.0275 -1.31391,0.0805 -1.15034,0.14462 -2.34183,0.47596 -3.53964,0.98254 -1.0564,0.44848 -2.11386,1.02472 -3.23252,1.76343 -0.21212,0.1351 -0.43375,0.27021 -0.64799,0.40109 -1.01208,0.61627 -2.05897,1.25481 -2.7365,2.25951 -0.39998,0.5625 -0.70603,1.22841 -0.93399,2.03679 -0.21319,0.75352 -0.33348,1.53551 -0.42954,2.20986 l -0.002,0.0186 0.0116,-0.0137 c 0.27019,-0.30818 0.5604,-0.46438 0.86116,-0.46438 0.01,0 0.0179,0 0.0275,0 -0.075,0.97517 -0.0402,1.96928 -0.006,2.93072 l 0.004,0.13716 -0.0802,0.0127 -9.2e-4,0 c -0.0106,0.052 -0.0158,0.10665 -0.0211,0.16572 -0.0169,0.17621 -0.0348,0.35881 -0.2005,0.44956 -0.19314,0.0981 -0.39893,0.11088 -0.55723,0.11088 -0.0907,0 -0.18469,-0.01 -0.27439,-0.01 -0.0896,-0.01 -0.18152,-0.01 -0.27121,-0.01 -0.0317,0 -0.0612,0 -0.0887,0 l -0.002,0.0118 c 0.23429,0.0609 0.47596,0.1087 0.70919,0.15511 0.16676,0.0324 0.33982,0.0667 0.50869,0.10557 -0.14143,0.0108 -0.28811,0.0148 -0.45063,0.0148 -0.14142,0 -0.29444,0 -0.46963,-0.0118 l -0.002,0.0108 c 0.42002,0.20791 0.91815,0.31231 1.47854,0.31231 0.14879,0 0.30499,-0.01 0.46329,-0.0245 -0.15409,0.0314 -0.31344,0.0471 -0.4865,0.0471 -0.19631,0 -0.40843,-0.0197 -0.65116,-0.0609 l -0.003,0 -0.002,0 c -0.43587,0.79787 -0.95298,1.58732 -1.78673,1.95142 -0.22372,0.0981 -0.4158,0.23528 -0.54032,0.38726 -0.1583,0.19211 -0.20896,0.40208 -0.15198,0.62265 0.0907,0.3747 0.38837,0.59948 0.67542,0.81681 0.25644,0.19319 0.52134,0.39364 0.64166,0.69868 0.0475,0.12667 0.0358,0.26383 -0.0338,0.38726 -0.075,0.13412 -0.20895,0.23117 -0.35777,0.25864 -0.14669,0.0226 -0.26173,0.0932 -0.34087,0.21212 -0.15093,0.22684 -0.13719,0.57722 -0.0791,0.8073 0.0823,0.38314 0.43586,0.66385 1.05113,0.83271 -0.24061,0.31446 -0.4443,0.65531 -0.31239,1.0205 0.075,0.30181 0.34299,0.37883 0.60156,0.45379 0.23323,0.0677 0.47385,0.13716 0.58255,0.36518 0.0697,0.2554 -0.0887,0.44535 -0.24167,0.62893 -0.0982,0.11822 -0.19948,0.23959 -0.24273,0.38 -0.0444,0.49283 0.0402,0.97507 0.23851,1.36135 0.23534,0.37569 0.68703,0.59096 1.3825,0.65747 0.0591,0 0.12031,0 0.18152,0 0.72503,0 1.44055,-0.16463 2.13392,-0.32397 0.66804,-0.15404 1.35822,-0.31338 2.05582,-0.32506 0.0242,0 0.0475,-9.3e-4 0.0717,-9.3e-4 0.59626,0 1.11656,0.18151 1.46376,0.51079 0.55511,0.52659 0.82634,1.24636 1.07752,1.9998 0.40208,1.32867 0.93925,2.67747 1.59673,4.00616 -0.28811,0.34506 -0.59732,0.68387 -0.89704,1.01206 -0.55301,0.60469 -1.12605,1.23056 -1.58514,1.92709 -0.5456,0.16356 -1.03738,0.51285 -1.38461,0.98253 -0.35776,0.4844 -0.52766,1.05955 -0.47701,1.61784 -0.2575,0.35145 -0.49707,0.71123 -0.7778,1.14392 -0.49812,0.81269 -1.09015,1.5778 -1.66322,2.3176 -0.56461,0.72919 -1.14822,1.4838 -1.6421,2.28266 -0.33668,0.54248 -0.75565,1.21683 -0.80948,1.96928 9.3e-4,0.82113 0.47175,1.53139 0.95403,2.18985 0.92132,1.18622 2.07481,2.1867 3.19031,3.15344 l 0.0897,0.0785 c 0.26279,0.20996 0.52557,0.42847 0.7799,0.63952 0.53084,0.44221 1.07961,0.89805 1.65691,1.29914 -0.362,1.78247 -0.82951,3.87519 -1.56297,5.88037 l -0.0263,0.0648 c -0.31555,0.7757 -0.64165,1.57672 -1.25587,2.16237 -0.54666,0.47282 -1.17353,0.8538 -1.7793,1.22105 -0.5414,0.32928 -1.1018,0.66914 -1.60414,1.07437 -0.50761,0.39148 -1.02264,0.79679 -1.52075,1.18828 -2.87371,2.26059 -5.8445,4.59819 -9.35142,5.87095 -0.0116,-0.0922 -0.0211,-0.18573 -0.0295,-0.2765 -0.0285,-0.30926 -0.0581,-0.63009 -0.20579,-0.91188 -0.26806,-0.47596 -0.81264,-0.78405 -1.38779,-0.78405 -0.0601,0 -0.1203,0 -0.17834,0.0108 -0.38099,0.0265 -0.76829,0.053 -1.14294,0.0785 -1.14295,0.0755 -2.32494,0.15621 -3.48477,0.26913 -0.42635,-0.51393 -0.88437,-0.94564 -1.36244,-1.28433 -0.54244,-0.3852 -1.11128,-0.65119 -1.69172,-0.78836 -0.41158,-0.0992 -0.82739,-0.14884 -1.23368,-0.14884 -0.78202,0 -1.50282,0.18995 -2.08326,0.54984 -0.62055,0.3641 -1.04375,1.04376 -1.10389,1.77511 l 0,0 0,9.3e-4 c 0.12451,0.42218 0.48333,0.70712 0.8221,0.93082 -2.002,0.0648 -3.76865,0.23537 -5.3981,0.52138 -1.25796,0.25649 -2.68373,0.54671 -3.84041,1.32869 -0.9477,0.67965 -1.71809,1.62421 -2.22995,2.73233 -0.42319,0.91493 -0.64692,1.89324 -0.65747,2.86203 -0.003,0.20262 0.003,0.4063 0.02,0.60793 0.0496,0.56877 0.18681,1.11234 0.41054,1.61253 0.23745,0.53081 0.55933,0.98675 0.9572,1.35615 0.57832,0.5466 1.25797,0.9793 1.91545,1.39727 0.63321,0.40208 1.28753,0.81789 1.85002,1.33605 0.65432,0.56887 0.9266,1.10281 0.83371,1.63264 -0.0855,0.4844 -0.29759,0.93504 -0.5034,1.37088 -0.15195,0.32505 -0.31026,0.66061 -0.41579,1.00891 -0.13614,-0.01 -0.27651,-0.0157 -0.4158,-0.0157 -0.25752,0 -0.591,0.0236 -0.88754,0.20261 -0.64693,0.3229 -0.9266,1.0311 -1.1746,1.6558 -0.0148,0.0363 -0.0285,0.0716 -0.0432,0.10764 -0.14986,0.35037 -0.21317,0.74823 -0.17836,1.12076 0.0379,0.40003 0.1847,0.75992 0.42425,1.04063 -0.7609,1.59889 -1.52286,3.19769 -2.28377,4.79658 -2.55183,5.36006 -5.19019,10.90173 -7.77896,16.3557 -3.35811,-1.25157 -6.39752,-1.90384 -9.29022,-1.99352 -0.52977,-0.0245 -1.06166,-0.0373 -1.58196,-0.0373 -2.97607,0 -5.79068,0.39795 -8.36572,1.182 -2.04104,0.59732 -4.02721,1.42896 -5.90466,2.47055 -1.87325,1.03856 -3.6304,2.28168 -5.22503,3.69799 -1.61678,1.39726 -3.08266,2.98771 -4.35857,4.72695 -1.27381,1.73605 -2.35132,3.61242 -3.20299,5.57639 -1.17142,2.64685 -1.9355,5.48364 -2.27109,8.4301 -0.33138,2.91593 -0.23534,5.85301 0.28705,8.72988 0.35565,2.04738 0.95614,4.0852 1.78564,6.05659 0.81051,1.92703 1.83736,3.78764 3.05313,5.53105 2.61408,3.79506 6.21494,6.98536 10.41099,9.22693 4.20027,2.22358 8.93034,3.39823 13.67834,3.39823 0.36621,0 0.73768,-0.0102 1.10179,-0.0213 4.54748,-0.12869 8.9926,-1.30965 12.85517,-3.41613 2.20884,-1.17985 4.13802,-2.51808 5.73265,-3.97655 1.61783,-1.43946 3.0742,-3.03841 4.33007,-4.75427 1.28754,-1.75826 2.36187,-3.63464 3.19243,-5.57865 1.10706,-2.52438 1.84896,-5.21754 2.20461,-8.00478 0.35356,-2.7671 0.31978,-5.56065 -0.10237,-8.30345 -0.65432,-4.47582 -2.47584,-8.88817 -5.26723,-12.7591 -2.5054,-3.50062 -5.75058,-6.40288 -9.38625,-8.39541 0.80101,-1.70751 1.62629,-3.43827 2.42519,-5.11203 0.42213,-0.88755 0.8601,-1.80572 1.28857,-2.70907 1.25481,1.29071 2.50644,2.62567 3.71693,3.91638 1.34136,1.42995 2.72807,2.90963 4.12324,4.33329 1.02368,1.1091 2.08115,2.22144 3.10378,3.29797 0.31977,0.33447 0.64902,0.6817 0.97303,1.02256 1.31812,1.37617 2.64574,2.78828 3.92905,4.15385 1.51654,1.61153 3.08373,3.27905 4.64669,4.89897 1.47009,1.5893 2.98874,3.18398 4.45884,4.72578 1.43948,1.51025 2.92753,3.07116 4.36913,4.62771 -0.20791,0.64485 -0.41475,1.28858 -0.62265,1.93241 -0.70604,2.19083 -1.4374,4.45671 -2.14129,6.68984 -0.32716,1.06581 -1.15455,2.03894 -2.33023,2.74178 -0.74295,0.45798 -1.63472,0.82633 -2.72698,1.12714 l -0.002,0 -9.2e-4,0 -0.0126,0 0.004,0 c -0.45697,0.37568 -0.84639,0.73021 -0.97619,1.25166 l 0,0 0,9.3e-4 c 0.0738,0.40853 0.41896,0.62276 0.75141,0.82958 0.0739,0.0464 0.14986,0.0942 0.22055,0.1414 1.79409,1.06173 3.68844,2.01147 5.52158,2.92967 l 0.22268,0.1118 c 0.019,0.22593 0.0106,0.47079 0.003,0.70711 -0.0222,0.66703 -0.0444,1.35512 0.47067,1.8426 0.30711,0.33885 0.74086,0.38413 1.12395,0.38413 0.11293,0 0.22584,0 0.33559,-0.0102 0.0939,0 0.18257,-0.0102 0.27124,-0.0102 0.58149,0 1.16404,0 1.74553,0 0.68809,0 1.3994,0 2.09908,0 1.3709,0 2.48112,0 3.4911,0.0139 0.006,0 0.0126,0 0.0189,0 0.4443,0 0.88017,-0.28494 1.1081,-0.72511 0.21953,-0.40092 0.21213,-0.85789 0.20582,-1.3001 -0.002,-0.14038 -0.004,-0.28605 9.2e-4,-0.42643 l 9.3e-4,-0.0566 c 0.009,-0.58575 0.018,-1.24962 -0.44325,-1.67485 -0.28281,-0.31881 -0.725,-0.38097 -1.11655,-0.4359 0.0443,-0.35574 0.0918,-0.71546 0.13824,-1.06377 0.0528,-0.39786 0.10764,-0.80945 0.1583,-1.21473 0.17519,0.0111 0.35355,0.0158 0.52978,0.0158 2.29433,0 4.58865,-0.91402 6.29515,-2.50759 1.45426,-1.34231 2.42308,-3.28632 2.72595,-5.47195 0.97831,-0.0575 1.97457,-0.10652 2.9381,-0.15411 0.31871,-0.0149 0.63744,-0.0306 0.95616,-0.0464 0.29758,2.96975 1.06166,5.87622 2.2732,8.63915 0.85378,1.9724 1.9123,3.84563 3.14599,5.56585 1.26324,1.7603 2.70592,3.35498 4.28789,4.74062 3.40981,3.07005 7.61431,5.32313 12.15652,6.51466 2.31754,0.63743 4.79233,0.96032 7.3547,0.96032 2.06004,0 4.1813,-0.20895 6.30464,-0.62054 1.90914,-0.40946 3.78765,-1.01098 5.58279,-1.78981 1.80356,-0.78096 3.52695,-1.74137 5.12158,-2.85376 1.50176,-1.04791 2.91593,-2.24251 4.20344,-3.55114 1.29176,-1.31187 2.46214,-2.74604 3.47949,-4.2626 1.22315,-1.8246 2.24472,-3.80768 3.03729,-5.89514 0.78623,-2.06853 1.34451,-4.22985 1.65794,-6.42178 0.30919,-2.13284 0.37039,-4.33962 0.18254,-6.55892 z M 191.81904,931.45591 c 0.0285,-0.18053 0.0402,-0.36833 0.0348,-0.55621 0.56671,0.18681 1.06801,0.35674 1.5313,0.51824 -0.25645,0.61843 -0.55827,1.22733 -0.8506,1.81623 -0.20052,0.40207 -0.40631,0.81897 -0.59733,1.23478 -0.90232,1.90701 -1.71494,3.62825 -2.50962,5.35808 0.0317,-0.30823 0.12454,-0.60904 0.21424,-0.9003 0.0211,-0.0677 0.0432,-0.13825 0.0644,-0.20784 0.55089,-1.87227 1.10285,-3.7782 1.63685,-5.6219 0.15936,-0.54669 0.31766,-1.09339 0.47595,-1.64108 z m -9.70918,-1.56935 c 0.73452,-0.0706 1.4891,-0.10764 2.24367,-0.10764 2.21834,0 4.50422,0.3071 6.79221,0.91395 -0.2765,0.60262 -0.45802,1.25166 -0.63321,1.87961 -0.0707,0.25431 -0.14353,0.51706 -0.22267,0.77245 -0.32294,1.1356 -0.65855,2.28905 -0.98359,3.40357 -0.54139,1.85636 -1.10073,3.77506 -1.61679,5.67148 -0.0612,0.21628 -0.12137,0.43682 -0.18047,0.65004 -0.19734,0.72186 -0.40208,1.46803 -0.67542,2.17718 -0.37465,0.75777 -0.73979,1.53549 -1.09229,2.28797 -0.23006,0.4886 -0.46645,0.99418 -0.7039,1.4891 -0.2839,-0.0139 -0.57728,-0.0278 -0.86751,-0.038 -0.3757,-3.42893 -0.76828,-6.91465 -1.14716,-10.28542 -0.30709,-2.72811 -0.62476,-5.55014 -0.93187,-8.32466 0.003,-0.0549 -0.0105,-0.11607 -0.0233,-0.17621 -0.0242,-0.11608 -0.0496,-0.23539 0.0422,-0.31349 z m 0.40842,25.98593 c 0.21529,0.51077 0.61527,0.91281 1.09757,1.10385 0.24272,0.1055 0.51711,0.16043 0.7915,0.16043 0.69231,0 1.32552,-0.33663 1.65372,-0.87914 0.31555,-0.51077 0.56673,-1.06701 0.80946,-1.60516 0.16147,-0.35778 0.32927,-0.72817 0.5129,-1.07964 0.0285,-0.0362 0.0485,-0.0872 0.0697,-0.14252 0.0359,-0.0951 0.0738,-0.19197 0.15936,-0.19197 0.0179,0 0.0369,0 0.058,0.0121 0.6501,1.11759 0.69021,2.55705 0.10027,3.66832 -0.68704,1.26437 -2.002,2.10546 -3.34967,2.14239 -0.0507,0 -0.10238,0 -0.15303,0 -1.41733,0 -2.79456,-0.86011 -3.42777,-2.14025 -0.44218,-0.84842 -0.54244,-1.88798 -0.27544,-2.85052 0.30604,-0.97192 0.95086,-1.78981 1.76875,-2.2425 0.51079,-0.30397 1.08807,-0.44119 1.58619,-0.53407 -0.43269,0.99938 -0.90232,1.97974 -1.42682,3.06568 -0.19314,0.46235 -0.18363,1.01219 0.0253,1.50923 z m -1.38779,-25.87507 c 0.32296,3.00136 0.66698,6.05034 1.00048,9.00001 0.28283,2.50537 0.57516,5.09628 0.85271,7.64497 0.0264,0.27121 0.0601,0.54567 0.0919,0.81149 0.0654,0.54251 0.13297,1.10395 0.1467,1.65908 -0.56883,0.0622 -1.10496,0.28178 -1.64951,0.52126 -1.48171,-2.72377 -3.00879,-5.48355 -4.48628,-8.15147 -1.40573,-2.53914 -2.85894,-5.16479 -4.27099,-7.75684 -0.0464,-0.0893 -0.0971,-0.17936 -0.14669,-0.26481 -0.11714,-0.20585 -0.23745,-0.41798 -0.29867,-0.65012 2.87265,-1.5049 5.82023,-2.45161 8.76044,-2.81357 z m -9.60364,3.33486 c 1.4722,2.70803 2.99296,5.44767 4.46412,8.09667 0.85799,1.54606 1.74447,3.14278 2.61198,4.71743 0.27121,0.50335 0.55511,1.01107 0.8295,1.50282 0.44852,0.80305 0.91287,1.63468 1.335,2.47057 -0.21845,0.15198 -0.41685,0.33347 -0.60893,0.50976 -0.11608,0.10651 -0.23534,0.21526 -0.35881,0.3176 -0.0939,-0.0102 -0.16781,-0.0705 -0.23851,-0.13092 -0.0338,-0.0288 -0.0686,-0.0575 -0.10448,-0.0807 -3.99449,-3.21563 -8.06074,-6.45556 -11.51067,-9.2016 -0.3757,-0.30397 -0.76195,-0.60885 -1.13554,-0.90437 -0.64903,-0.51291 -1.31919,-1.04271 -1.96084,-1.58616 2.08642,-2.45585 4.33325,-4.3766 6.67718,-5.71165 z m -10.678,12.61674 c 0.076,-0.19215 0.15513,-0.38941 0.2269,-0.58574 0.85378,-2.04525 1.93656,-3.9206 3.21775,-5.57439 1.42894,1.18105 2.98557,2.42529 5.04456,4.03148 1.6991,1.34138 3.41192,2.72173 5.06883,4.0568 1.5693,1.26428 3.19136,2.5718 4.79865,3.84461 -0.25749,0.38738 -0.45696,0.79897 -0.63426,1.18616 -1.21365,-0.3524 -2.44734,-0.71129 -3.64095,-1.05839 -4.78914,-1.39316 -9.73979,-2.83373 -14.62498,-4.19933 0.0992,-0.58992 0.32504,-1.15451 0.5435,-1.7012 z m -0.83478,2.55083 c 2.72385,0.78727 5.49308,1.58615 8.17049,2.35969 3.31906,0.95716 6.75105,1.94708 10.125,2.92437 -0.0855,0.35565 -0.1066,0.72502 -0.1277,1.08177 -0.0116,0.1994 -0.0242,0.40519 -0.0475,0.60579 -4.05466,0.47061 -8.18211,0.9297 -12.17344,1.37507 -1.50598,0.16775 -3.06368,0.34089 -4.59498,0.51281 -0.27333,0.0251 -0.54984,0.0566 -0.81788,0.0872 -0.41055,0.0492 -0.83585,0.0981 -1.25799,0.12136 -0.30814,-3.11755 -0.0654,-6.16857 0.72398,-9.06854 z m -0.6121,9.99723 c 3.46998,-0.37671 6.99694,-0.77355 10.40782,-1.15665 2.26899,-0.25535 4.61609,-0.51922 6.92519,-0.77568 0.57411,-0.0677 1.05218,-0.12247 1.54924,-0.15198 0.0971,0.45381 0.25118,0.89704 0.38944,1.27699 -3.37712,1.82683 -6.79222,3.71694 -10.09439,5.54479 -2.12653,1.17771 -4.32587,2.39559 -6.49356,3.58388 -1.39833,-2.67525 -2.3017,-5.47408 -2.68374,-8.32135 z m 4.20555,10.80574 c -0.0834,-0.12665 -0.16885,-0.25441 -0.25116,-0.37781 -0.27652,-0.41057 -0.56145,-0.8359 -0.79258,-1.28126 0.0803,-0.12136 0.22057,-0.18464 0.35566,-0.24486 0.075,-0.0334 0.15197,-0.0687 0.2174,-0.1119 2.83255,-1.54393 5.70204,-3.1311 8.47759,-4.66677 2.45264,-1.35604 4.98758,-2.75857 7.48769,-4.12528 0.19735,0.2649 0.40842,0.52553 0.61316,0.77781 0.0644,0.0789 0.1277,0.15727 0.19207,0.23632 0.002,0.0909 -0.0581,0.16154 -0.11609,0.23122 -0.0285,0.0325 -0.0581,0.0677 -0.0791,0.10336 -3.67368,4.57807 -7.589,9.46437 -11.52016,14.43501 -1.5883,-1.20935 -3.08796,-2.83781 -4.58444,-4.97584 z m 13.9749,8.11028 c -0.16146,0.58147 -0.32821,1.18309 -0.55089,1.75612 -3.14387,-1.02266 -5.89199,-2.46314 -8.17154,-4.28051 0.83794,-0.99622 1.65901,-2.03364 2.45156,-3.03729 0.47069,-0.5941 0.95615,-1.20944 1.44056,-1.80883 l 0.70813,-0.88971 c 1.52181,-1.91117 3.09534,-3.88793 4.64881,-5.82657 0.32927,-0.39786 0.65538,-0.81047 0.97093,-1.20935 0.51922,-0.65654 1.05639,-1.33507 1.62311,-1.97037 0.50762,0.38311 1.04374,0.67334 1.59358,0.86225 -0.81895,2.89162 -1.66745,5.82759 -2.48745,8.66642 -0.64271,2.2258 -1.30758,4.5275 -1.95451,6.79329 -0.0971,0.31343 -0.18575,0.63428 -0.27229,0.94455 z m 6.72995,2.82518 c -2.18985,0 -4.32481,-0.2828 -6.34475,-0.84109 0.56567,-1.9545 1.13662,-3.94277 1.68961,-5.86563 0.9456,-3.29059 1.9239,-6.69411 2.90537,-10.03536 0.0813,-0.26165 0.15726,-0.53073 0.23007,-0.79145 0.13403,-0.47487 0.27227,-0.96672 0.44958,-1.43101 0.13719,0.0102 0.2765,0.0195 0.41158,0.0306 0.29022,0.0232 0.58994,0.0473 0.88649,0.0473 0.0327,0 0.0665,0 0.0982,0 0.2881,2.62987 0.58993,5.30104 0.88227,7.88555 0.40208,3.56699 0.81894,7.25656 1.2052,10.88804 -0.80207,0.0752 -1.61468,0.11403 -2.41358,0.11403 z m 11.54443,-2.75133 c -0.0106,0.0269 -0.0379,0.0445 -0.0866,0.0566 -2.76605,1.354 -5.50679,2.18461 -8.1441,2.46853 -0.43058,-4.19608 -0.91499,-8.45757 -1.38356,-12.57877 -0.23112,-2.03253 -0.46963,-4.13372 -0.69969,-6.20216 0.2554,-0.0464 0.50657,-0.12572 0.7493,-0.20273 0.12348,-0.039 0.25223,-0.0798 0.37887,-0.11496 0.095,0.0306 0.14035,0.12136 0.18468,0.20997 0.0211,0.0418 0.0432,0.0863 0.0707,0.12247 1.97455,3.55438 3.97126,7.17529 5.90149,10.67585 0.9572,1.73822 1.94817,3.53443 2.92331,5.29891 0.01,0.0278 0.0275,0.0575 0.0475,0.0891 0.0359,0.0603 0.077,0.1287 0.0581,0.1762 z m 0.84745,-0.46642 c -1.17777,-2.14026 -2.37876,-4.31317 -3.54069,-6.41446 -1.65372,-2.98979 -3.36339,-6.08191 -5.03189,-9.13081 -0.0581,-0.11922 -0.12769,-0.23854 -0.19419,-0.35248 -0.12663,-0.21628 -0.25645,-0.4411 -0.31764,-0.68707 0.0728,-0.0566 0.14669,-0.11292 0.22057,-0.16887 0.34193,-0.25849 0.6944,-0.52655 0.99836,-0.84099 1.15664,0.87272 2.30487,1.79621 3.4151,2.69 0.55193,0.44434 1.12182,0.90232 1.68538,1.34973 0.83267,0.66498 1.67906,1.34352 2.49695,1.99885 2.36715,1.89651 4.81448,3.85843 7.24495,5.75912 -1.85953,2.29855 -4.20661,4.24989 -6.9769,5.79698 z m 7.56577,-6.48934 c -1.63367,-1.30222 -3.29267,-2.62885 -4.89786,-3.91317 -3.25468,-2.60251 -6.62124,-5.29474 -9.94769,-7.92155 0.32399,-0.49909 0.57939,-1.00254 0.7609,-1.49643 2.83677,0.83478 5.72631,1.6653 8.51982,2.46853 3.21458,0.92441 6.53787,1.88055 9.79994,2.84625 -0.9878,3.03191 -2.41252,5.72943 -4.23511,8.01637 z m 4.49051,-8.93568 c -3.10483,-0.87375 -6.25504,-1.78767 -9.30077,-2.66996 -2.96342,-0.85899 -6.02708,-1.74768 -9.04538,-2.59935 0.0665,-0.41474 0.10343,-0.85269 0.11081,-1.30018 2.39353,-0.26908 4.8261,-0.54455 7.17953,-0.81149 3.43514,-0.39053 6.98639,-0.79266 10.48064,-1.17985 0.0823,-0.0102 0.16568,-0.0167 0.248,-0.026 0.36411,-0.0371 0.74085,-0.0742 1.10812,-0.13927 0.25013,2.87372 -0.0126,5.80857 -0.78095,8.72553 z m -3.58712,-20.86514 c 0.46752,0.65849 0.90126,1.34241 1.29809,2.04942 1.5809,2.80617 2.59824,5.96798 2.97183,9.27017 -0.10342,-0.0139 -0.21001,-0.0195 -0.32505,-0.0195 -0.26173,0 -0.52662,0.0343 -0.78305,0.0677 -0.19736,0.026 -0.4021,0.052 -0.60472,0.0622 -2.55077,0.28494 -5.14482,0.57833 -7.65337,0.86216 -3.16393,0.35786 -6.43445,0.72826 -9.65326,1.08501 -0.0876,-0.51402 -0.25117,-1.03853 -0.49918,-1.60516 2.86843,-1.55674 5.7717,-3.16395 8.57891,-4.71855 2.47795,-1.37088 5.04033,-2.78928 7.56893,-4.16861 0.24484,-0.11292 0.42743,-0.39684 0.30817,-0.67547 -0.009,-0.0315 -0.0211,-0.0603 -0.0369,-0.0872 -0.0697,-0.11701 -0.19947,-0.18882 -0.35355,-0.18882 -0.0897,0 -0.17623,0.0241 -0.25116,0.0696 -2.24051,1.22642 -4.51478,2.48541 -6.71306,3.70228 -3.11538,1.72541 -6.33736,3.509 -9.52134,5.23229 -0.17097,-0.1171 -0.30184,-0.29228 -0.42741,-0.46226 -0.11081,-0.14873 -0.22586,-0.30386 -0.37043,-0.42207 0.0317,-0.0612 0.0633,-0.1235 0.0939,-0.18464 0.21001,-0.41382 0.42636,-0.84118 0.59311,-1.28126 0.12453,-0.33458 0.36304,-0.60254 0.5931,-0.86113 0.0876,-0.0982 0.17835,-0.19949 0.26067,-0.30285 3.22303,-4.06321 6.67823,-8.40904 10.11128,-12.66112 1.697,1.34245 3.27158,3.05636 4.8145,5.23884 z m -5.55535,-5.8404 c -0.43586,0.54561 -0.88122,1.0997 -1.31286,1.63483 -1.01101,1.25794 -2.05792,2.55911 -3.06894,3.85299 -0.43164,0.53824 -0.86538,1.09124 -1.28436,1.62531 -0.81788,1.04048 -1.66216,2.11594 -2.53283,3.14065 1.16722,-2.52438 2.3872,-5.07613 3.56813,-7.5436 0.68703,-1.4374 1.39728,-2.92339 2.08958,-4.38816 0.896,0.49921 1.73183,1.0986 2.54128,1.67798 z m 104.12895,6.78281 c 1.66323,2.72703 2.76394,5.54897 3.27157,8.38575 -3.87733,0.67863 -7.81696,1.38147 -11.62677,2.06213 -2.34708,0.41902 -4.77439,0.85167 -7.16262,1.27486 -0.12137,-0.46643 -0.30711,-0.90224 -0.50341,-1.34343 2.66582,-1.68644 5.36328,-3.42151 7.97315,-5.09942 2.16978,-1.3952 4.41344,-2.8378 6.62651,-4.24571 0.14774,-0.10234 0.3071,-0.19633 0.46013,-0.28596 0.34828,-0.2058 0.70815,-0.41688 0.96144,-0.74822 z m -0.46648,-0.7072 c -0.32608,0.11719 -0.61525,0.31148 -0.89493,0.49927 -0.13508,0.09 -0.27439,0.18576 -0.41687,0.26908 -1.83102,1.17567 -3.69688,2.36405 -5.50153,3.51327 -3.04995,1.94393 -6.20543,3.95336 -9.28808,5.95954 -0.3451,-0.41363 -0.6765,-0.75554 -1.01104,-1.04485 1.71705,-2.43039 3.44148,-4.91469 5.11103,-7.31771 1.09124,-1.57241 2.22045,-3.19883 3.33702,-4.79446 0.30604,-0.42848 0.60999,-0.86961 0.90442,-1.29592 0.50445,-0.73243 1.02686,-1.49021 1.57775,-2.20783 2.57296,1.99463 4.65304,4.1539 6.18223,6.41961 z m -15.28351,-7.90763 c 0.0622,-0.28493 0.13085,-0.5731 0.19629,-0.85272 0.12665,-0.54141 0.25751,-1.09968 0.35881,-1.65689 2.84838,0.77463 5.42025,1.92278 7.64071,3.41296 -0.70074,1.07014 -1.45216,2.13503 -2.17824,3.16397 -0.44852,0.63422 -0.91076,1.28964 -1.35717,1.94073 -1.21365,1.72246 -2.43682,3.48165 -3.61878,5.18285 -1.21681,1.75083 -2.47584,3.5618 -3.72432,5.3337 -0.27226,-0.14456 -0.55089,-0.27761 -0.83055,-0.39471 0.46223,-2.13598 0.93924,-4.30583 1.40044,-6.4048 0.69969,-3.18612 1.42366,-6.47989 2.11281,-9.72509 z m -4.53484,20.79982 c -0.35881,-0.40417 -0.71551,-0.82105 -1.05955,-1.2242 -0.40316,-0.4718 -0.81895,-0.95929 -1.24109,-1.42683 0.31766,-0.0952 0.65007,-0.14243 0.98885,-0.14243 1.34345,0 2.67425,0.74933 3.39084,1.90802 0.82,1.28757 0.73558,3.05307 -0.20369,4.29424 -0.70921,0.97507 -1.92075,1.58086 -3.16183,1.58086 -0.39471,0 -0.7799,-0.0612 -1.14504,-0.18149 -0.9055,-0.27761 -1.71705,-0.96885 -2.2268,-1.89539 0.24591,-0.0121 0.49495,-0.0269 0.73663,-0.0408 0.56989,-0.0334 1.15878,-0.0687 1.74028,-0.0696 0.0338,0 0.0686,0 0.10341,0 0.64061,-0.0241 1.30443,-0.0492 1.81943,-0.45594 0.34615,-0.23957 0.57622,-0.63956 0.62898,-1.0955 0.0548,-0.46847 -0.0802,-0.92228 -0.37042,-1.24637 z m -1.16508,-24.07041 c 1.81624,0 3.59659,0.18573 5.29254,0.55308 -0.88542,3.74331 -1.70437,7.56789 -2.49589,11.26582 -0.37464,1.75195 -0.76196,3.5618 -1.15139,5.34112 -0.0539,0.22695 -0.10237,0.45901 -0.14986,0.68382 -0.0887,0.42115 -0.18045,0.85696 -0.30499,1.27495 -0.48969,-0.10345 -0.98675,-0.12563 -1.40889,-0.13407 -0.43585,-2.45999 -0.88649,-4.96016 -1.32234,-7.37895 -0.67121,-3.72646 -1.36561,-7.57959 -2.02309,-11.37353 1.19148,-0.15414 2.39034,-0.23224 3.56391,-0.23224 z m -4.56755,0.42533 c 0.48441,2.83466 1.00575,5.71262 1.51019,8.49553 0.60368,3.33394 1.22843,6.78171 1.79409,10.18105 -0.44326,0.0872 -0.87066,0.24903 -1.2833,0.40518 -0.0464,0.0176 -0.0928,0.0343 -0.1393,0.0529 -0.22795,-0.0971 -0.37463,-0.32298 -0.51606,-0.54242 -0.0665,-0.10234 -0.13403,-0.20793 -0.2079,-0.29561 -1.52285,-2.38715 -3.07739,-4.81021 -4.58126,-7.15403 -1.66323,-2.59306 -3.38449,-5.27474 -5.06777,-7.91732 2.60987,-1.59566 5.54583,-2.71016 8.49131,-3.22516 z m -9.35355,3.77186 c 1.00469,1.6041 2.04527,3.22304 3.05209,4.78807 1.00362,1.55989 2.04102,3.17239 3.04253,4.77227 -0.96984,-1.11128 -1.95238,-2.24157 -2.90429,-3.33485 -1.49755,-1.72017 -3.04574,-3.49951 -4.57282,-5.24511 0.41791,-0.31348 0.88965,-0.66808 1.38249,-0.98038 z m -3.81929,3.14602 c 1.87851,2.19301 3.8098,4.40396 5.67776,6.54311 1.43632,1.64423 2.92119,3.34329 4.3723,5.02454 -0.97832,-0.67231 -1.96928,-1.3604 -2.92754,-2.0252 -1.22735,-0.85065 -2.49588,-1.73089 -3.7486,-2.58775 l 0.01,-0.0232 0,0 c 0.0295,-0.0807 0.0887,-0.23215 0.11819,-0.30823 l 9.2e-4,0 -9.2e-4,0 c -0.46328,-0.7419 -0.9287,-1.49967 -1.37932,-2.23313 -0.79678,-1.29703 -1.61996,-2.63731 -2.45579,-3.93961 l 0,0 -0.0675,-0.0922 c 0.11821,-0.11294 0.25013,-0.22792 0.40105,-0.35146 z m -1.54081,1.63574 c 0.0919,-0.10977 0.18784,-0.2238 0.28072,-0.33561 0.91286,1.1704 1.82576,2.37353 2.70906,3.53537 0.39682,0.52349 0.80735,1.06387 1.21365,1.59469 -0.90865,-0.58779 -1.80569,-1.22318 -2.67529,-1.83834 -0.41583,-0.29449 -0.84638,-0.59846 -1.27169,-0.89397 -0.12138,-0.0798 -0.24061,-0.16989 -0.35567,-0.25637 -0.2786,-0.21117 -0.56776,-0.42959 -0.9192,-0.51606 0.31344,-0.45066 0.67122,-0.87709 1.01842,-1.28971 z m -0.77673,2.59509 c 0.10132,0.0631 0.20473,0.12767 0.30078,0.19735 5.0625,3.54176 9.73873,6.79756 14.29678,9.94981 0.0369,0.0427 0.11187,0.12452 0.15197,0.16887 -0.0295,0.0557 -0.0591,0.1119 -0.0887,0.16674 -0.17095,0.32298 -0.34719,0.65644 -0.46856,1.00893 -1.97666,-0.42532 -3.98499,-0.8653 -5.92681,-1.29174 -2.29117,-0.50233 -4.66044,-1.02156 -6.99274,-1.51869 l -0.0116,-0.0436 c -0.0539,-0.21526 -0.10659,-0.4295 -0.16041,-0.64476 -0.43902,-1.77942 -0.89282,-3.61979 -1.58303,-5.35068 -0.0402,-0.0882 -0.0802,-0.17731 -0.12029,-0.26481 -0.28812,-0.63325 -0.58466,-1.28757 -0.82846,-1.95246 0.21318,-0.3356 0.45379,-0.71555 0.70603,-1.07008 0.16462,0.29552 0.44955,0.47283 0.72501,0.64476 z m 12.98288,12.30431 c -2.59616,0.16469 -5.23769,0.29551 -7.79375,0.42207 -2.01887,0.1003 -4.10634,0.20264 -6.15899,0.32308 0.34404,-0.44648 0.70496,-0.89083 1.05324,-1.32032 0.23006,-0.28281 0.46857,-0.57508 0.69863,-0.86531 0.0728,-0.0952 0.15198,-0.18789 0.22901,-0.27761 0.18574,-0.21637 0.37781,-0.4411 0.48967,-0.7124 0.0295,-0.0102 0.0717,-0.0139 0.114,-0.0223 0.0485,-0.0102 0.097,-0.0186 0.1298,-0.026 0.71236,0.15505 1.42577,0.30814 2.13813,0.46216 2.98663,0.64495 6.07457,1.31188 9.10026,2.01583 z m -15.16113,-19.19578 c 0.16147,0.18681 0.32823,0.37892 0.49813,0.56151 -0.45484,0.50443 -0.92132,1.05115 -1.468,1.72021 -0.0591,-0.25118 -0.12558,-0.50766 -0.18995,-0.75559 -0.2554,-0.98051 -0.51923,-1.99365 -0.38415,-3.01101 0.6005,0.39893 1.08068,0.95094 1.54397,1.48488 z m -6.45767,-96.91883 c 0.58784,-0.32712 1.14928,-0.71654 1.69173,-1.09223 0.42213,-0.29336 0.85905,-0.59625 1.30546,-0.86753 0.69546,-0.39041 1.3044,-0.92759 1.76244,-1.55445 0.60471,-0.81691 1.06273,-1.78149 1.40151,-2.94553 0.33348,-1.15139 0.49917,-2.3281 0.60576,-3.22516 0.14036,-1.81093 -0.0633,-3.27364 -0.6237,-4.47251 -0.0834,-0.21851 -0.0992,-0.40523 -0.0496,-0.57094 0.0485,-0.0618 0.10764,-0.0932 0.17414,-0.0932 0.10763,0 0.23745,0.0804 0.39575,0.24588 0.62265,0.70083 1.00468,1.55778 1.07645,2.41364 0.095,0.84105 -0.0907,1.67376 -0.27017,2.47791 -0.076,0.34194 -0.15408,0.69447 -0.21002,1.04269 -0.28494,1.68012 -1.04795,3.37822 -2.40092,5.34426 -0.59943,0.87803 -1.48276,1.48803 -2.33759,2.07691 -0.24801,0.17102 -0.5034,0.34724 -0.74825,0.52669 -0.81367,0.58359 -1.46271,1.34448 -1.93656,1.94181 -0.67014,0.86008 -1.03633,1.66326 -1.11866,2.45584 -0.42426,-0.65433 -0.77991,-1.27276 -1.08914,-1.89226 0.56358,-0.64698 1.31709,-1.22321 2.37138,-1.81211 z m -20.34813,110.75659 c -1.80992,-1.89113 -3.63357,-3.83087 -5.39705,-5.70632 -1.72021,-1.82989 -3.49845,-3.72112 -5.26301,-5.56578 -1.64104,-1.75718 -3.3275,-3.52601 -4.95802,-5.23667 -1.52604,-1.60203 -3.10483,-3.25793 -4.64247,-4.89999 -3.16393,-3.36871 -5.96587,-6.33317 -8.56519,-9.06443 0.095,-0.32181 0.24907,-0.62578 0.39787,-0.92022 0.10765,-0.21321 0.21952,-0.43269 0.30816,-0.65747 2.99296,0.45378 6.03342,0.9371 8.97361,1.40462 2.09382,0.33241 4.2594,0.67651 6.38907,1.00784 0.95298,0.14355 1.91861,0.29975 2.85366,0.45065 1.55664,0.25117 3.16604,0.51187 4.75434,0.71978 l 0.0189,0.0775 c 0.009,0.58045 0.11714,1.14933 0.32294,1.69064 0.2976,0.88018 0.80944,1.66541 1.30546,2.42522 0.48968,0.75137 0.99731,1.52923 1.29384,2.39667 0.14671,0.48234 -0.0823,0.91817 -0.30498,1.34036 -0.0507,0.0971 -0.10342,0.19731 -0.14985,0.29445 -0.1045,0.18357 -0.12983,0.41366 -0.0697,0.6142 0.0507,0.17092 0.15724,0.30181 0.3071,0.37883 1.0891,0.66699 1.96083,1.61469 2.80299,2.53177 0.58572,0.63746 1.19043,1.29602 1.86374,1.85527 -0.2079,2.70283 -0.42846,5.15449 -0.67331,7.49725 -0.27333,2.30068 -0.78622,4.71001 -1.56823,7.36633 z m 1.75927,18.55305 c -0.21635,0.57202 -0.44008,1.16296 -0.66805,1.74128 -0.0559,0 -0.1393,0 -0.22163,0 -0.0813,0 -0.16251,0 -0.21845,0 l 0.02,-0.0529 c 0.4633,-1.16927 0.94032,-2.37871 1.26643,-3.61349 0.12346,0.0575 0.25116,0.11932 0.37358,0.17945 l 0.0992,0.0492 c -0.22161,0.5645 -0.44006,1.14181 -0.65112,1.70009 z m 1.66005,-4.40502 c -0.24061,-0.16572 -0.48758,-0.34303 -0.7324,-0.52767 0.0475,-0.17304 0.0981,-0.3472 0.14774,-0.51606 0.0327,-0.11292 0.0654,-0.22584 0.097,-0.33885 0.25436,-0.16887 0.50446,-0.35138 0.74614,-0.52767 0.21212,-0.15513 0.43165,-0.31546 0.65326,-0.46531 -0.12876,0.32502 -0.25222,0.65747 -0.37148,0.98036 -0.16991,0.46012 -0.34615,0.9361 -0.54033,1.3952 z m 1.88169,6.13266 c -0.45485,0.0213 -0.86011,0.0334 -1.23793,0.039 0.14564,-0.47282 0.33033,-0.94036 0.50867,-1.39213 0.14354,-0.36297 0.29233,-0.73866 0.41898,-1.11434 0.13508,0.013 0.2744,0.0288 0.40948,0.0445 0.0348,0 0.0686,0.009 0.10237,0.0121 -0.0623,0.82327 -0.13403,1.64209 -0.20157,2.41155 z m 0.02,-72.92137 -0.19841,0.0795 -0.005,0 -1.68644,0.69545 -0.002,0 -0.004,0 c -1.35298,0.51922 -2.7091,1.09644 -4.02089,1.65364 -1.16933,0.49813 -2.37769,1.01216 -3.58078,1.4839 -0.10027,0.0412 -0.20369,0.0785 -0.30395,0.11391 -0.26594,0.0962 -0.54139,0.19417 -0.77039,0.37147 -0.0327,0.0236 -0.0654,0.0491 -0.0971,0.0716 -0.15196,0.11498 -0.30815,0.23321 -0.50129,0.23321 -0.0148,0 -0.0295,0 -0.0444,0 -0.0158,0 -0.0317,-9.3e-4 -0.0464,-9.3e-4 -0.44958,0 -0.87066,0.16562 -1.27698,0.32505 -0.33453,0.11706 -0.67647,0.23421 -1.00681,0.34822 -3.22091,1.10704 -6.55051,2.25313 -9.44851,4.15491 l -0.002,0 0,0 c -0.038,1.59781 0.1773,3.11645 0.63848,4.51155 l 0.005,0.0157 0.006,-0.0148 c 0.0444,0.19947 0.12558,0.41051 0.2269,0.62902 0.44007,1.17562 1.17881,2.33015 2.19723,3.43199 0.30288,0.3387 0.65325,0.63638 0.99201,0.92553 0.20582,0.17513 0.41899,0.35664 0.6195,0.54562 l -0.10237,0.0667 c -2.97608,-0.4738 -6.00388,-0.94662 -8.93246,-1.40256 -1.51547,-0.23745 -3.08372,-0.48117 -4.62558,-0.72292 0.572,-1.14393 1.11866,-2.32388 1.64739,-3.46467 0.267,-0.57309 0.54139,-1.16718 0.81684,-1.74871 0.76302,-0.0893 1.38251,-0.48754 1.65689,-1.06378 0.32717,-0.69965 0.69866,-1.49331 0.53929,-2.30699 -0.0728,-0.44849 -0.40947,-0.78728 -0.68175,-1.05848 0.10027,-0.22694 0.20896,-0.45702 0.31344,-0.67964 0.42849,-0.90865 0.87066,-1.84791 0.90654,-2.87685 0.0444,-0.63216 -0.0485,-1.2654 -0.27544,-1.88274 -0.21952,-0.59636 -0.56462,-1.15777 -0.99624,-1.62313 -0.83901,-0.92131 -1.88907,-1.62215 -2.90431,-2.30072 -0.39787,-0.26492 -0.80839,-0.53924 -1.19993,-0.82319 -0.41055,-0.29013 -0.64587,-0.80416 -0.64587,-1.37088 0,-0.12558 0.0116,-0.25431 0.0359,-0.38304 0.15725,-1.06377 0.82634,-2.46005 2.19405,-2.89274 1.98618,-0.67122 4.11375,-0.79778 6.17062,-0.91915 0.17521,-0.0108 0.34933,-0.0197 0.52346,-0.0314 0.0242,0 0.0475,0 0.0718,0 0.22372,0 0.43058,0.0961 0.63004,0.18887 0.20367,0.0952 0.41474,0.19211 0.64692,0.19211 0.0233,0 0.0464,0 0.0686,0 0.80734,-0.0108 1.62523,-0.0815 2.41568,-0.14884 0.53401,-0.0461 1.08596,-0.0942 1.62947,-0.12235 0.13718,0.44427 0.30816,0.99627 0.72924,1.3329 0.45064,0.34821 0.97093,0.53924 1.46481,0.53924 0.16465,0 0.32717,-0.0216 0.48124,-0.0637 1.9598,-0.41474 3.8763,-1.09547 5.73478,-1.77305 0.12347,-0.0442 0.24692,-0.0893 0.37042,-0.13501 0.25539,-0.0942 0.52028,-0.19104 0.78095,-0.28492 4.98123,-1.91336 9.02216,-3.69691 12.71587,-5.61341 1.35613,-0.72507 2.89269,-1.54718 4.233,-2.62891 0.94347,-0.76824 1.40571,-1.91542 1.85424,-3.02462 0.0391,-0.0971 0.077,-0.19309 0.11608,-0.28806 0.47596,1.00146 0.72397,2.09271 0.96354,3.14912 0.21422,0.94456 0.43585,1.9218 0.82,2.83359 l 0.003,0.01 0.68386,1.50069 -0.006,0 0.002,0.01 c 0.0939,0.2554 0.19841,0.51717 0.29972,0.76933 0.43271,1.08389 0.88017,2.20466 0.74508,3.3951 -0.0106,0.19633 -0.0803,0.38942 -0.14669,0.57623 -0.11185,0.31025 -0.2269,0.63109 -0.0707,0.96242 0.16147,0.38098 -0.0961,0.80318 -0.42845,0.97626 -0.0791,0.0373 -0.16675,0.0549 -0.27334,0.0549 -0.0896,0 -0.18363,-0.0127 -0.27335,-0.0255 -0.0886,-0.0118 -0.18152,-0.0245 -0.26911,-0.0245 -0.15196,0 -0.2691,0.0382 -0.36831,0.11715 -1.34663,0.86637 -2.94757,1.13864 -4.34169,1.32653 l -0.003,0 c -0.26173,0.14138 -0.48337,0.35037 -0.69865,0.55298 -0.18994,0.17946 -0.38625,0.36411 -0.61208,0.50343 -1.84693,1.35077 -4.00828,2.21938 -6.09894,3.05944 z m 1.29069,67.77862 c 0.0507,-0.35035 0.0981,-0.70711 0.14353,-1.05217 0.075,-0.56051 0.15304,-1.14088 0.2459,-1.70974 0.34404,0.67018 0.60471,1.39418 0.8559,2.09489 0.0622,0.17415 0.12769,0.35564 0.1931,0.53295 -0.48967,0.0742 -0.97409,0.12034 -1.43843,0.13407 z m 1.53131,-16.59641 c -0.17624,-0.94037 -0.35987,-1.91229 -0.69443,-2.82937 -1.14187,-3.09324 -0.61632,-6.39439 0.075,-9.78628 l 9.3e-4,-0.01 1.04269,-0.42641 0.008,0 c 1.86797,-0.93082 3.78343,-2.11596 6.0292,-3.73065 0.10659,0.15728 0.21423,0.31662 0.32188,0.47497 0.075,0.11078 0.14985,0.22155 0.22477,0.33134 -2.72172,6.86931 -4.82187,12.11121 -6.80909,16.99119 -0.0706,-0.33671 -0.13507,-0.67964 -0.19838,-1.01209 z m 4.60027,8.31087 c -0.52769,0.0761 -1.07014,0.0952 -1.59358,0.11394 -0.44325,0.0158 -0.90127,0.0325 -1.34873,0.0835 -0.0158,-0.0204 -0.0328,-0.039 -0.0496,-0.0575 -0.10871,-0.12554 -0.22058,-0.25544 -0.11081,-0.41679 0.0707,-0.17944 0.14248,-0.35787 0.21318,-0.53611 0.27334,-0.6892 0.55617,-1.40048 0.84638,-2.0959 0.93504,0.73448 1.64107,1.74026 2.04316,2.90962 z m -3.07741,7.51515 c -0.15303,-0.46113 -0.33242,-0.92023 -0.50657,-1.36467 -0.16568,-0.42096 -0.33665,-0.85584 -0.48333,-1.29165 0.51606,-0.31036 0.95614,-0.78941 1.30862,-1.42368 0.49283,-0.0139 0.99309,-0.0417 1.47749,-0.0696 0.48231,-0.0278 0.98254,-0.0557 1.47432,-0.0696 -0.47069,1.92064 -1.69279,3.49741 -3.27053,4.21928 z m 10.41839,-13.44406 c -0.36516,1.84687 -0.55302,3.72955 -0.55933,5.59544 -0.78731,0.0631 -1.58934,0.1003 -2.36504,0.13612 -0.51289,0.0241 -1.04268,0.0492 -1.56403,0.0816 -0.5667,-2.26366 -1.97138,-4.25193 -3.85306,-5.45711 1.94395,-4.81346 3.89529,-9.71655 5.78329,-14.45832 l 0.0739,-0.1878 c 0.41159,0.67857 0.75141,1.41104 1.08173,2.11806 0.11714,0.25333 0.23955,0.51501 0.36199,0.7704 0.58571,1.22423 1.12923,2.49278 1.65477,3.71911 0.32296,0.75239 0.65644,1.53131 0.99625,2.29214 -0.70497,1.73498 -1.24636,3.54807 -1.61046,5.39077 z m 4.10532,-108.16361 c -0.33984,-0.46969 -0.84745,-0.75039 -1.35825,-0.75039 -0.10236,0 -0.20579,0.0118 -0.30604,0.0343 -0.28074,0.0588 -0.51923,0.22478 -0.74931,0.38422 -0.0432,0.0304 -0.0876,0.0609 -0.13086,0.0903 l 0.004,0.01 c 0.11188,-0.0294 0.229,-0.0451 0.3451,-0.0451 0.43375,0 0.75985,0.20368 0.87066,0.54248 0.0496,0.22685 -0.0106,0.45898 -0.16781,0.65531 -0.18994,0.23539 -0.50235,0.38737 -0.79468,0.38737 -0.19205,0 -0.36514,-0.0637 -0.50234,-0.18475 -0.31765,-0.30181 -0.43902,-0.79464 -0.3187,-1.2864 0.11715,-0.47498 0.43164,-0.82849 0.84111,-0.94456 0.2195,-0.0638 0.45274,-0.0962 0.6923,-0.0962 0.42741,0 0.86328,0.10235 1.26115,0.29445 0.49073,0.22792 0.84533,0.74401 0.90336,1.31495 0.0887,0.77884 -0.20156,1.62951 -0.77357,2.27854 -0.0475,-0.0706 -0.13296,-0.19633 -0.17941,-0.26177 0.33983,-0.33242 0.54245,-0.6406 0.63637,-0.96987 0.15515,-0.46958 0.0548,-0.99941 -0.2733,-1.4532 z m -0.25964,111.74229 c 0.0327,-0.58045 0.0887,-1.25054 0.23325,-1.90912 0.0126,0.65431 -0.10239,1.3012 -0.23325,1.90912 z m 0.80524,5.53106 c 0.13613,-0.16367 0.27754,-0.33143 0.42213,-0.49287 l 9.3e-4,0 0.0295,-0.0353 c 1.16722,-0.0455 2.35238,-0.11088 3.49848,-0.17415 1.1556,-0.0649 2.34814,-0.12981 3.52381,-0.17518 -2.7418,0.52553 -5.41499,1.00355 -7.94572,1.42257 0.16254,-0.17722 0.31872,-0.36409 0.47069,-0.54446 z m -0.43692,1.58513 c 3.77709,-0.66285 7.61434,-1.35298 11.32598,-2.01992 1.61997,-0.29134 3.29584,-0.59317 4.9443,-0.88757 0.50447,-0.0501 1.02052,-0.0612 1.51864,-0.0715 0.33773,-0.0102 0.68704,-0.0158 1.03109,-0.0343 0.0528,0.13398 0.11187,0.26899 0.16884,0.3999 0.0739,0.16776 0.14986,0.34191 0.21424,0.51718 -0.20051,0.19624 -0.45168,0.34507 -0.69442,0.48861 -0.16358,0.0961 -0.33137,0.19521 -0.48442,0.30915 -2.33336,1.49754 -4.70682,3.01837 -7.00326,4.48946 -1.88275,1.20629 -3.8288,2.45368 -5.7432,3.68215 -0.28601,0.17192 -0.56988,0.35768 -0.84534,0.53824 -0.40947,0.26898 -0.83266,0.54668 -1.27062,0.7831 -1.59042,-2.73018 -2.65422,-5.4868 -3.16183,-8.19378 z m 3.76126,9.09081 c 1.01208,-0.69876 2.07059,-1.3668 3.09428,-2.01165 0.6923,-0.43683 1.40888,-0.88851 2.10436,-1.34556 1.23897,-0.79145 2.49587,-1.59988 3.71058,-2.38084 2.33022,-1.49856 4.73959,-3.0488 7.12886,-4.54217 0.31345,0.38831 0.67017,0.72715 0.94665,0.97944 -2.02203,2.85358 -4.04935,5.77582 -6.00912,8.60202 -0.78202,1.12817 -1.59149,2.29437 -2.38931,3.44044 -0.31029,0.45697 -0.63532,0.91606 -0.94982,1.36041 -0.51922,0.73234 -1.05534,1.49113 -1.54397,2.2605 -2.43363,-1.81198 -4.48311,-3.95224 -6.09251,-6.36259 z m 6.89037,6.91141 c 0.26066,-0.26286 0.46433,-0.57619 0.66064,-0.87913 0.10236,-0.15727 0.20791,-0.32085 0.31978,-0.47385 1.66426,-2.35236 3.33065,-4.76067 4.94216,-7.09085 1.63263,-2.35978 3.32013,-4.80075 5.00657,-7.18271 0.59733,0.32298 1.15982,0.54353 1.71917,0.67426 -0.59523,2.76303 -1.21155,5.57021 -1.80781,8.28452 -0.74509,3.3909 -1.5155,6.89777 -2.25001,10.35194 -2.98979,-0.61534 -5.88039,-1.85531 -8.5905,-3.68418 z m 14.12581,4.30899 c -1.50072,0 -3.03202,-0.1298 -4.55172,-0.38635 0.60473,-2.80932 1.23159,-5.6629 1.83736,-8.4237 0.7419,-3.37493 1.50915,-6.86501 2.24155,-10.30332 0.0528,0 0.10764,0 0.16358,0 0.42003,0 0.84428,-0.0297 1.25586,-0.0575 0.5625,3.37076 1.18094,6.79024 1.77826,10.09651 0.29657,1.63579 0.60261,3.32752 0.89811,4.99291 0.075,0.4474 0.1604,0.90121 0.24272,1.34027 0.14669,0.77781 0.2976,1.58206 0.39892,2.37982 -1.38145,0.23855 -2.81671,0.35991 -4.26464,0.35991 z m 5.282,-0.56357 c -0.52662,-2.99201 -1.07328,-6.03135 -1.60306,-8.97149 -0.33771,-1.87536 -0.68704,-3.81409 -1.02686,-5.72108 -0.0866,-0.51607 -0.18151,-1.03956 -0.27228,-1.54607 -0.15725,-0.86744 -0.31978,-1.76345 -0.44325,-2.64991 0.36303,-0.12359 0.67436,-0.26286 0.95192,-0.42533 0.34826,0.4295 0.64376,0.90753 0.92977,1.3708 0.14563,0.23539 0.29654,0.47811 0.45168,0.71249 0.53083,0.82726 1.07012,1.66946 1.59147,2.4843 0.94349,1.47425 1.91862,2.99813 2.88532,4.49252 0.92977,1.41421 1.85002,2.86852 2.73969,4.2742 0.57726,0.91179 1.17353,1.85308 1.76664,2.77545 -2.55606,1.55562 -5.23874,2.63424 -7.97104,3.20412 z m 8.8512,-3.79293 c -0.57518,-0.83793 -1.12713,-1.71177 -1.66112,-2.55815 -0.38099,-0.60366 -0.77569,-1.22744 -1.17566,-1.83314 -0.89493,-1.40577 -1.81202,-2.83048 -2.69852,-4.20869 -1.58407,-2.45897 -3.22196,-5.00237 -4.79232,-7.52991 0.39576,-0.31129 0.7303,-0.68605 1.03847,-1.04484 2.4695,1.70546 4.96751,3.45732 7.38426,5.15119 2.71434,1.90273 5.52052,3.86994 8.29713,5.78009 -1.77616,2.47901 -3.92696,4.57918 -6.39224,6.24345 z m 6.95367,-7.09827 c -2.5666,-1.81523 -5.19337,-3.63779 -7.73359,-5.39921 -2.61303,-1.8131 -5.3147,-3.68734 -7.95518,-5.55639 0.191,-0.36835 0.34298,-0.78412 0.49494,-1.34555 3.29902,0.75146 6.66346,1.47443 9.91604,2.17403 2.87898,0.6185 5.85506,1.25796 8.77731,1.91543 -0.69652,3.04259 -1.87429,5.80552 -3.49952,8.21169 z m 3.70322,-9.20374 c -1.68434,-0.36928 -3.39717,-0.74607 -5.05301,-1.11127 -4.4715,-0.98454 -9.09602,-2.00303 -13.65301,-2.96446 9.3e-4,-0.39675 0.002,-0.75452 0.005,-1.1123 5.47619,-0.9656 12.28952,-2.1666 18.80946,-3.3792 0.42845,2.83883 0.39153,5.72098 -0.10871,8.56723 z"
       inkscape:connector-curvature="0"
       style="fill:#ffffff;fill-opacity:1" />
  </g>
</svg>
